<svg width="24" height="24" viewBox="0 0 24 24" fill="none" xmlns="http://www.w3.org/2000/svg">
<path d="M3.44463 5.30622C3.31807 5.32965 3.03682 5.43278 2.82119 5.53122C2.09932 5.86872 1.53682 6.55778 1.33525 7.3359C1.22744 7.75309 1.22744 16.2468 1.33525 16.664C1.53682 17.4422 2.09932 18.1312 2.8165 18.464C3.03213 18.5672 3.33682 18.6703 3.48682 18.6984C3.679 18.7359 5.44619 18.75 9.01806 18.75C14.7884 18.75 14.6009 18.7593 15.2149 18.464C15.6556 18.2531 16.2368 17.6765 16.4431 17.25C16.7431 16.6265 16.7337 16.8234 16.7337 12C16.7337 7.17653 16.7431 7.3734 16.4431 6.74997C16.2368 6.3234 15.6556 5.74684 15.2149 5.5359C14.5962 5.24059 14.7978 5.24997 8.97588 5.25465C5.83994 5.25934 3.58525 5.27809 3.44463 5.30622ZM12.4024 8.37184C12.6509 8.55465 12.7259 8.70465 12.7259 8.99997C12.7259 9.29528 12.6509 9.44528 12.4024 9.62809C12.2806 9.72184 12.2009 9.72653 11.0571 9.74059C9.8665 9.75465 9.83838 9.74997 9.65088 9.64684C9.13525 9.3609 9.12588 8.6484 9.63682 8.35309C9.81494 8.24997 9.84775 8.24997 11.0478 8.25934C12.2009 8.2734 12.2806 8.27809 12.4024 8.37184Z" fill="#C1C6D5"/>
<path d="M12.4024 8.37184C12.6509 8.55465 12.7259 8.70465 12.7259 8.99997C12.7259 9.29528 12.6509 9.44528 12.4024 9.62809C12.2806 9.72184 12.2009 9.72653 11.0571 9.74059C9.8665 9.75465 9.83838 9.74997 9.65088 9.64684C9.13525 9.3609 9.12588 8.6484 9.63682 8.35309C9.81494 8.24997 9.84775 8.24997 11.0478 8.25934C12.2009 8.2734 12.2806 8.27809 12.4024 8.37184Z" fill="#4F5B87"/>
<path d="M20.4837 6.07025C20.3665 6.10775 19.7056 6.46868 19.0165 6.8765L17.7603 7.61712V11.9999V16.3827L19.0165 17.1234C19.7243 17.5406 20.3853 17.8968 20.5259 17.939C21.3321 18.1734 22.2181 17.7562 22.5837 16.9781L22.7103 16.7109V11.9999V7.289L22.5603 6.97962C22.2649 6.37962 21.7353 6.04212 21.0696 6.014C20.8306 6.00462 20.6149 6.02806 20.4837 6.07025Z" fill="#4F5B87"/>
<rect x="3" y="12" width="12" height="4.5" rx="2.25" fill="#4F5B87"/>
<rect x="0.5" y="0.5" width="7" height="7" rx="3.5" fill="#FF941A"/>
<rect x="0.5" y="0.5" width="7" height="7" rx="3.5" stroke="white"/>
</svg>
