<svg width="47" height="87" viewBox="0 0 47 87" fill="none" xmlns="http://www.w3.org/2000/svg">
<path fill-rule="evenodd" clip-rule="evenodd" d="M40.1687 43.0706C40.1687 43.0561 40.1687 43.0415 40.1687 43.027C40.1687 43.0124 40.1687 42.9979 40.1687 42.9834V43.0706ZM9.26966 60.824V25.23C3.69502 28.9825 0 35.551 0 43.027C0 50.5029 3.69502 57.0715 9.26966 60.824Z" fill="#EC1F2B" fill-opacity="0.25"/>
<path fill-rule="evenodd" clip-rule="evenodd" d="M11.31 62.564V24.4358C14.8258 22.1849 19.0055 20.8799 23.49 20.8799L23.49 66.1198H23.4223C18.9635 66.1067 14.8081 64.8036 11.31 62.564Z" fill="#EC1F2B" fill-opacity="0.5"/>
<path fill-rule="evenodd" clip-rule="evenodd" d="M22.1204 66.0134C22.5734 66.0405 23.0301 66.0542 23.49 66.0542C23.9499 66.0542 24.4065 66.0405 24.8596 66.0134H22.1204ZM25.23 65.9883C36.9096 65.0998 46.11 55.3414 46.11 43.4342C46.11 31.527 36.9096 21.7686 25.23 20.8801V65.9883Z" fill="#FF0007"/>
</svg>
