<svg width="68" height="87" viewBox="0 0 68 87" fill="none" xmlns="http://www.w3.org/2000/svg">
<rect x="46.98" y="20.8801" width="13.92" height="13.92" fill="#FFC500" fill-opacity="0.25"/>
<rect y="34.8" width="17.4" height="17.4" fill="#FFC500" fill-opacity="0.5"/>
<rect x="46.98" y="45.24" width="20.88" height="20.88" fill="#FFC500"/>
<path d="M17.2468 43.3462C17.1618 43.4312 17.1618 43.5689 17.2468 43.6538L18.6309 45.038C18.7159 45.1229 18.8536 45.1229 18.9385 45.038C19.0235 44.9531 19.0235 44.8153 18.9385 44.7304L17.7082 43.5L18.9385 42.2697C19.0235 42.1847 19.0235 42.047 18.9385 41.9621C18.8536 41.8771 18.7159 41.8771 18.6309 41.9621L17.2468 43.3462ZM46.9806 27.6225C42.9173 27.6225 40.2331 28.6122 38.1921 30.1116C36.1617 31.6032 34.7812 33.5925 33.3209 35.5395C31.855 37.4942 30.2992 39.422 27.9045 40.8669C25.5126 42.3102 22.2641 43.2825 17.4006 43.2825L17.4006 43.7175C22.3243 43.7175 25.6549 42.7324 28.1293 41.2394C30.6009 39.748 32.1987 37.7608 33.669 35.8005C35.1449 33.8325 36.4832 31.9068 38.4496 30.4622C40.4053 29.0254 42.9958 28.0575 46.9806 28.0575L46.9806 27.6225Z" fill="#FFC500"/>
<path d="M47.1341 55.9615C47.2189 56.0466 47.2186 56.1843 47.1336 56.2691L45.7471 57.651C45.662 57.7358 45.5243 57.7356 45.4395 57.6505C45.3547 57.5654 45.355 57.4277 45.44 57.3429L46.6724 56.1146L45.4441 54.8822C45.3593 54.7971 45.3595 54.6594 45.4446 54.5746C45.5297 54.4898 45.6674 54.49 45.7522 54.5751L47.1341 55.9615ZM17.877 43.2773C21.842 43.2838 24.4723 44.0807 26.4834 45.2866C28.487 46.4881 29.862 48.0894 31.3127 49.655C32.7672 51.2248 34.3097 52.7743 36.6685 53.9385C39.0274 55.1027 42.2202 55.8898 46.9804 55.8976L46.9797 56.3326C42.1716 56.3247 38.9093 55.5295 36.476 54.3286C34.0427 53.1276 32.4558 51.5287 30.9936 49.9506C29.5274 48.3683 28.1982 46.8221 26.2597 45.6597C24.3288 44.5018 21.7792 43.7187 17.8763 43.7123L17.877 43.2773Z" fill="#FFC500"/>
</svg>
