<svg width="237" height="64" viewBox="0 0 237 64" fill="none" xmlns="http://www.w3.org/2000/svg">
<path d="M131.368 5.68423C131.368 10.0211 131.495 10.9474 132 10.9474C132.505 10.9474 132.632 10.0211 132.716 6.18949L132.842 1.4737L134.863 1.34739C137.853 1.13686 137.263 0.421071 134.105 0.421071H131.368V5.68423Z" fill="white"/>
<path d="M56.6316 1.09476C42.1053 2.56845 31.8317 5.30529 21.8527 10.3158C16.1685 13.1369 12.0001 16.1263 7.95797 20.1684C-1.13677 29.3053 -2.35782 39.7474 4.63165 48.1685C7.62113 51.7895 13.2632 55.8316 18.2317 57.8948L19.7895 58.5263V55.6211V52.7158L16.3369 50.6948C11.8317 48.0842 6.90534 43.2421 5.22113 39.7895C4.12639 37.5158 4.00007 36.8421 4.00007 33.0527C4.00007 29.0948 4.08429 28.6316 5.43165 25.8948C7.11586 22.4842 12.0843 17.2211 16.2106 14.5263C24.2106 9.30529 34.779 5.51582 47.6211 3.32634C54.2738 2.1895 69.2632 1.76845 76.2948 2.48424C90.2317 3.95792 101.263 7.66319 108.968 13.4737C115.074 18.0632 118.021 23.1579 118.063 29.2632C118.105 32.2948 117.937 32.9684 116.674 35.579C114.99 39.0316 110.274 43.9579 106.105 46.6948C100.674 50.2316 90.0632 54.7369 83.7053 56.2527C82.5685 56.5053 82.5264 56.6316 82.5264 59.2V61.8527L84.758 61.179C98.5264 57.1369 111.495 48.7579 117.053 40.2948C127.958 23.7053 111.79 6.77898 80.4211 1.89476C76.1685 1.26318 60.379 0.715816 56.6316 1.09476Z" fill="white"/>
<path d="M138.358 3.95791C137.474 4.80002 137.263 5.4316 137.263 7.15791C137.263 9.64212 138.274 10.9474 140.168 10.9474C142.358 10.9474 143.495 8.96844 143.032 6.02107C142.737 4.21055 142.105 3.53686 140.547 3.15791C139.663 2.94739 139.158 3.11581 138.358 3.95791ZM141.389 4.71581C142.105 5.4316 142.021 9.05265 141.263 9.68423C139.537 11.1158 137.684 8.54739 138.484 5.85265C138.863 4.58949 139.2 4.21055 139.916 4.21055C140.463 4.21055 141.095 4.42107 141.389 4.71581Z" fill="white"/>
<path d="M146.526 3.2421C145.348 3.66315 144.842 4.79999 144.842 7.15789C144.842 10.021 145.684 11.0737 147.832 10.8632C149.179 10.7368 150.358 9.6 149.726 8.96842C149.558 8.79999 149.221 8.96842 149.011 9.38947C148.463 10.3579 146.653 10.3158 146.105 9.30526C145.895 8.8421 145.684 7.87368 145.684 7.15789C145.684 5.26315 146.358 4.21052 147.621 4.21052C148.337 4.21052 148.8 4.50526 148.926 5.05263C149.137 5.89473 150.316 6.23157 150.316 5.47368C150.316 4.79999 148.337 2.94736 147.705 2.98947C147.411 2.98947 146.863 3.11578 146.526 3.2421Z" fill="white"/>
<path d="M166.695 3.74739C166.147 4.16845 165.81 4.71581 166.021 4.88423C166.189 5.05266 166.568 4.96845 166.821 4.71581C167.537 4.00002 169.137 4.08423 169.432 4.88423C169.895 6.06318 169.726 6.31581 168.421 6.31581C167.074 6.31581 165.474 7.57897 165.474 8.67371C165.474 10.6106 167.874 11.7474 169.179 10.4421C169.558 10.0632 169.684 10.0632 169.684 10.4421C169.684 10.7369 169.937 10.9474 170.232 10.9474C170.61 10.9474 170.695 10.0632 170.526 7.41055C170.4 5.47371 170.232 3.74739 170.105 3.66318C169.389 2.90529 167.663 2.94739 166.695 3.74739ZM169.684 8.21055C169.684 9.30529 168.337 10.3158 167.326 9.93687C166.61 9.64213 166.568 8.33687 167.242 7.66318C167.537 7.36844 168.168 7.15792 168.716 7.15792C169.474 7.15792 169.684 7.41055 169.684 8.21055Z" fill="white"/>
<path d="M174.779 3.32629C174.484 3.53682 173.853 3.57892 173.432 3.49471C172.674 3.28419 172.632 3.57892 172.632 8.58945C172.632 13.0105 172.716 13.8947 173.263 13.8947C173.726 13.8947 173.895 13.4316 173.895 12.2526V10.5684L175.411 10.821C177.516 11.1579 178.105 10.2737 178.105 6.90524C178.105 4.63156 177.979 4.1684 177.179 3.62103C176.126 2.86314 175.621 2.82103 174.779 3.32629ZM176.842 5.0105C177.811 6.86314 177.053 10.1052 175.663 10.1052C175.242 10.1052 174.695 9.89471 174.4 9.59998C173.853 9.05261 173.684 4.9684 174.189 4.50524C174.737 3.91577 176.421 4.25261 176.842 5.0105Z" fill="white"/>
<path d="M181.474 3.49477C179.242 4.63161 179.411 10.1895 181.684 10.779C183.116 11.1158 184.674 10.6948 185.011 9.85267C185.389 8.80003 184.968 8.58951 184.084 9.38951C182.4 10.9053 181.053 9.97898 181.053 7.32635C181.053 4.80003 181.389 4.21056 182.737 4.21056C183.579 4.21056 184.042 4.46319 184.211 5.05267C184.547 6.1474 185.263 6.1474 185.263 5.09477C185.263 4.29477 183.832 2.9474 182.947 2.9474C182.737 2.9474 182.063 3.20003 181.474 3.49477Z" fill="white"/>
<path d="M202.526 3.24214C201.348 3.66319 200.842 4.80003 200.842 7.15793C200.842 8.92635 201.053 9.72635 201.6 10.2316C202.863 11.3685 205.895 11.0737 205.895 9.85266C205.895 9.3474 205.726 9.3474 205.011 9.68424C203.832 10.3158 202.232 9.89477 201.895 8.84214C201.474 7.53688 201.979 7.15793 204.295 7.15793H206.442L206.148 5.76845C205.769 3.7053 204.211 2.65267 202.526 3.24214ZM204.8 4.88424C205.263 6.1053 205.053 6.31582 203.369 6.31582C201.558 6.31582 201.474 6.23161 202.105 5.01056C202.653 4.04214 204.421 3.95793 204.8 4.88424Z" fill="white"/>
<path d="M224.59 3.36844C222.695 4.12633 222.19 8.33686 223.832 10.1474C224.253 10.6105 225.137 10.9474 225.937 10.9474C227.747 10.9474 228.632 9.68423 228.632 7.0316C228.632 5.4316 228.421 4.80002 227.579 4.00002C226.484 2.90528 226.021 2.77897 224.59 3.36844ZM227.579 6.02107C227.874 7.28423 227.79 7.91581 227.326 8.75791C225.979 11.1579 224 10.0632 224 6.94739C224 4.92633 224.632 4.12633 226.105 4.29476C226.947 4.37897 227.242 4.75791 227.579 6.02107Z" fill="white"/>
<path d="M231.537 3.74739C230.653 4.46318 230.526 4.92633 230.526 7.15791C230.526 10.1053 231.2 10.9474 233.516 10.9474C234.905 10.9474 236.168 9.97897 235.411 9.51581C235.2 9.34739 234.905 9.4316 234.737 9.68423C234.358 10.2737 232.716 10.2316 232.084 9.60002C231.79 9.30528 231.579 8.6737 231.579 8.12633C231.579 7.24212 231.747 7.15791 233.684 7.15791C235.705 7.15791 235.79 7.11581 235.79 5.97897C235.79 3.49476 233.39 2.2316 231.537 3.74739ZM234.568 5.34739C234.905 6.2316 234.821 6.31581 233.263 6.31581C231.579 6.31581 231.368 6.10528 231.832 4.84212C232.253 3.8316 234.147 4.21055 234.568 5.34739Z" fill="white"/>
<path d="M151.832 5.34737C152.169 6.48421 152.674 8.37895 152.969 9.64211C153.432 11.7474 153.39 11.9158 152.505 12.6316C151.326 13.6 151.326 13.9789 152.548 13.8105C153.516 13.6842 153.937 12.7158 155.705 6.4C156.379 4 156.463 3.36842 156 3.36842C155.411 3.36842 155.369 3.49474 154.484 6.73684C153.937 8.84211 153.726 8.63158 152.842 5.13684C152.59 4.12632 152.126 3.36842 151.79 3.36842C151.284 3.36842 151.284 3.66316 151.832 5.34737Z" fill="white"/>
<path d="M158.653 6.06314C158.569 7.83156 158.232 9.05261 157.769 9.59998C156.842 10.6105 156.8 13.0526 157.684 13.0526C158.063 13.0526 158.316 12.6737 158.316 12C158.316 10.9895 158.442 10.9473 160.632 10.9473C162.821 10.9473 162.947 10.9895 162.947 12C162.947 12.5895 163.158 13.0526 163.369 13.0526C163.621 13.0526 163.79 12.421 163.79 11.621C163.79 10.821 163.621 10.021 163.369 9.89472C163.158 9.7684 162.947 8.21051 162.947 6.48419V3.3684H160.884H158.821L158.653 6.06314ZM162.021 7.03156L161.895 9.89472L160.463 10.021C159.158 10.1473 159.074 10.1052 159.326 9.17893C159.495 8.63156 159.705 7.3263 159.874 6.18945C160.084 4.46314 160.253 4.21051 161.137 4.21051C162.105 4.21051 162.147 4.29472 162.021 7.03156Z" fill="white"/>
<path d="M186.526 3.78949C186.526 4.00002 186.99 4.21055 187.579 4.21055C188.632 4.21055 188.632 4.25265 188.632 7.57897C188.632 10.2737 188.758 10.9474 189.263 10.9474C189.768 10.9474 189.895 10.2737 189.895 7.57897C189.895 4.25265 189.895 4.21055 190.947 4.21055C191.537 4.21055 192 4.00002 192 3.78949C192 3.53686 190.821 3.36844 189.263 3.36844C187.705 3.36844 186.526 3.53686 186.526 3.78949Z" fill="white"/>
<path d="M193.684 7.15791V10.9474H195.579C196.926 10.9474 197.726 10.6948 198.316 10.1053C199.326 9.09476 199.326 8.88423 198.526 7.70528C198.105 7.11581 198.021 6.69476 198.316 6.52634C198.905 6.14739 198.863 4.50528 198.232 3.8737C197.937 3.57897 196.8 3.36844 195.705 3.36844H193.684V7.15791ZM197.39 5.34739C197.516 6.06318 197.263 6.35791 196.463 6.56844C195.074 6.90528 194.526 6.52634 194.526 5.22107C194.526 4.29476 194.695 4.16844 195.916 4.29476C196.926 4.37897 197.305 4.6316 197.39 5.34739ZM197.811 8.58949C198.021 9.55791 197.221 10.1053 195.705 10.1053C194.653 10.1053 194.526 9.93686 194.526 8.80002C194.526 7.57897 194.611 7.53686 196.084 7.66318C197.263 7.74739 197.726 8.00002 197.811 8.58949Z" fill="white"/>
<path d="M208 7.15791C208 10.2316 208.126 10.9474 208.632 10.9474C209.095 10.9474 209.263 10.4842 209.263 9.26318C209.263 7.62107 209.305 7.57897 210.737 7.57897C212.168 7.57897 212.211 7.62107 212.211 9.26318C212.211 10.4842 212.379 10.9474 212.842 10.9474C213.347 10.9474 213.474 10.2316 213.474 7.15791C213.474 4.08423 213.347 3.36844 212.842 3.36844C212.379 3.36844 212.211 3.8316 212.211 5.05265C212.211 6.69476 212.168 6.73686 210.737 6.73686C209.305 6.73686 209.263 6.69476 209.263 5.05265C209.263 3.8316 209.095 3.36844 208.632 3.36844C208.126 3.36844 208 4.08423 208 7.15791Z" fill="white"/>
<path d="M215.579 7.15791C215.579 10.2316 215.705 10.9474 216.211 10.9474C216.674 10.9474 216.842 10.4842 216.842 9.26318C216.842 7.62107 216.884 7.57897 218.316 7.57897C219.748 7.57897 219.79 7.62107 219.79 9.26318C219.79 10.4842 219.958 10.9474 220.421 10.9474C220.926 10.9474 221.053 10.2316 221.053 7.15791C221.053 4.08423 220.926 3.36844 220.421 3.36844C219.958 3.36844 219.79 3.8316 219.79 5.05265C219.79 6.69476 219.748 6.73686 218.316 6.73686C216.884 6.73686 216.842 6.69476 216.842 5.05265C216.842 3.8316 216.674 3.36844 216.211 3.36844C215.705 3.36844 215.579 4.08423 215.579 7.15791Z" fill="white"/>
<path d="M34.3579 13.5579C33.3474 15.7053 29.5158 23.5368 25.8106 30.9474L19.0737 44.4211L19.8737 47.0737L20.6737 49.6842H23.5369H26.4422L33.3895 35.579L40.379 21.4737H43.7474C45.6422 21.4737 47.1579 21.5579 47.1579 21.6421C47.1579 21.7684 44.6737 26.9053 41.6843 33.1368L36.1685 44.4211L36.8843 47.0316L37.6 49.6842H40.379H43.2L44.5053 47.0316L45.8106 44.4211L46.5685 47.0316L47.2843 49.6842H50.1474H52.9685L54.3158 47.5789C55.0737 46.4 55.7474 45.5158 55.8737 45.6C55.9579 45.6842 56.2527 46.6105 56.5474 47.6211L57.0948 49.4737L59.7895 49.6L62.5264 49.7263L70.1053 34.5263C74.2737 26.1895 77.8106 19.3684 77.9369 19.3684C78.1053 19.3684 78.3579 19.8316 78.4843 20.4211C78.6948 21.179 79.0316 21.4737 79.7895 21.4737C80.8 21.4737 80.5895 21.979 75.1158 32.8842L69.4316 44.2947L70.1895 46.9053L70.9895 49.4737L73.9369 49.6L76.9264 49.7263L83.7895 35.6211L90.6948 21.5158L93.8948 21.3895L97.0527 21.2632L98.6106 18.2737L100.168 15.2842L99.4106 12.5895L98.6527 9.89474L89.3895 9.76842L80.1685 9.68422L79.4948 11.0316L78.8632 12.4211L78.5685 11.0316L78.2316 9.68422H74.1053H69.9369L65.6843 15.8316C63.3264 19.2 61.5158 22.0632 61.6 22.1895C61.7264 22.2737 63.6632 19.6211 65.9369 16.2526L70.1053 10.1474L73.8106 10.1053H77.4737L69.0527 26.9474L60.6316 43.7895H58.5264H56.4211L62.2737 32.0842C68.3369 20 69.8527 16.7158 69.0527 17.5158C68.8 17.7684 64.6737 23.7474 59.8737 30.779L51.1158 43.579L48.9264 43.7053C47.5369 43.7895 46.7369 43.6632 46.7369 43.3684C46.7369 43.1158 48.5474 37.179 50.7369 30.2316C52.9264 23.2421 54.6527 17.4316 54.5264 17.3474C54.4422 17.2632 51.3685 23.1579 47.7053 30.4842L41.0527 43.7895H39.0737C37.9369 43.7895 37.0527 43.7053 37.0527 43.579C37.0527 43.4526 40.8 35.8737 45.3474 26.7368L53.6843 10.1053H57.1369C59.0737 10.1053 60.6316 10.2737 60.6316 10.4421C60.6316 10.779 54.8211 30.1895 53.8527 33.0526C53.3053 34.6947 53.5158 34.4 57.8527 28.0842C59.8737 25.1368 61.3895 22.5263 61.2632 22.3158C61.1369 22.1053 61.4737 20.379 62.0632 18.5263C63.0737 15.1579 63.0737 15.1579 62.3579 12.5053L61.6 9.89474L57.3895 9.76842L53.179 9.64211L52.5895 11.0316L52.0422 12.379L51.4948 11.0316L50.9474 9.68422H43.5369H36.1685L34.3579 13.5579ZM50.1053 10.3158C50.1053 10.4421 49.5158 11.6632 48.8422 13.0526L47.579 15.579H43.0316H38.5264L31.4527 29.6842L24.4211 43.7895H22.1053H19.7895L28.2106 26.9474L36.6316 10.1053H43.3685C47.0737 10.1053 50.1053 10.1895 50.1053 10.3158ZM96.3369 12.8421L94.9895 15.579H91.9158H88.8422L81.8106 29.6842L74.7369 43.7895H72.5474H70.3579L74.2737 35.6632C76.4211 31.2421 79.5369 24.8842 81.2211 21.5579L84.2106 15.579H81.0527C79.3264 15.579 77.8948 15.4947 77.8948 15.3684C77.8948 15.2421 78.4843 14.0211 79.1579 12.6316L80.4211 10.1053H89.0527H97.6843L96.3369 12.8421Z" fill="white"/>
<path d="M132.295 20.0421C131.242 20.7579 131.074 21.4737 132 21.4737C132.337 21.4737 132.632 21.3053 132.632 21.0947C132.632 20.4631 133.979 20.1684 134.568 20.6737C134.905 20.9263 135.158 21.5158 135.158 21.9368C135.158 22.5263 134.863 22.7368 133.937 22.7368C132.379 22.7368 131.368 23.7053 131.368 25.221C131.368 26.5684 132.042 27.3684 133.263 27.3684C133.768 27.3684 134.358 27.1579 134.653 26.8631C135.032 26.4842 135.158 26.4842 135.158 26.8631C135.158 27.1579 135.453 27.3684 135.789 27.3684C136.295 27.3684 136.421 26.7368 136.421 24.2105C136.421 21.6 136.253 20.8842 135.579 20.2105C134.568 19.2 133.558 19.1579 132.295 20.0421ZM135.158 24.5895C135.158 26.4421 133.011 27.1579 132.379 25.4737C132 24.5895 132.968 23.5789 134.147 23.5789C134.947 23.5789 135.158 23.7895 135.158 24.5895Z" fill="white"/>
<path d="M153.179 19.7895C151.537 20.8 151.242 24.9263 152.758 26.6105C153.6 27.6211 155.579 27.579 156.632 26.5263C157.6 25.5579 157.81 21.6842 156.968 20.5053C156.295 19.6211 154.147 19.2 153.179 19.7895ZM156.463 22.1053C156.589 22.6947 156.589 23.7895 156.463 24.5895C155.874 27.7053 152.842 26.8632 152.842 23.5368C152.842 20.4211 155.747 19.2421 156.463 22.1053Z" fill="white"/>
<path d="M167.958 20.1684C167.116 20.8421 166.948 21.3895 166.948 23.2842C166.948 26.021 167.874 27.3684 169.769 27.3684C171.663 27.3684 172.632 26.0631 172.632 23.4105C172.632 21.4316 172.463 21.0105 171.537 20.2526C170.148 19.1579 169.221 19.1579 167.958 20.1684ZM171.621 22.6105C171.958 24.421 171.158 26.2316 169.895 26.4842C168.758 26.6947 168 25.3895 168 23.3263C168 19.9579 171.032 19.3684 171.621 22.6105Z" fill="white"/>
<path d="M192.632 20.421C190.821 22.1895 191.453 26.6947 193.558 27.2C196.042 27.8316 197.474 26.3158 197.474 23.1158C197.474 21.221 196.042 19.3684 194.526 19.3684C194.063 19.3684 193.179 19.8316 192.632 20.421ZM195.579 20.8842C196.505 21.8526 196.295 25.6421 195.284 26.2737C193.979 27.0737 193.053 26.1053 192.926 23.7053C192.8 21.6421 193.474 20.2105 194.526 20.2105C194.737 20.2105 195.2 20.5053 195.579 20.8842Z" fill="white"/>
<path d="M200.211 20.4211C198.821 21.7684 198.695 25.2211 200 26.5263C200.926 27.4527 202.526 27.6211 203.832 26.9053C205.095 26.2316 204.379 25.6842 202.947 26.2316C201.558 26.779 200.589 26.1895 200.337 24.6316C200.211 23.8737 200.463 23.7895 202.442 23.6632C204.295 23.5369 204.632 23.4105 204.632 22.6948C204.632 21.7263 203.874 20.1263 203.2 19.7053C202.316 19.1158 201.221 19.3684 200.211 20.4211ZM203.368 21.8948C203.368 22.5684 203.074 22.7369 201.895 22.7369C200.716 22.7369 200.421 22.5684 200.421 21.8948C200.421 21.4737 200.758 20.9263 201.137 20.6737C202.105 20.1684 203.368 20.8421 203.368 21.8948Z" fill="white"/>
<path d="M138.526 23.5789V27.3684H140.59C141.937 27.3684 142.905 27.1158 143.326 26.6947C144.084 25.9368 144.211 24.3789 143.537 23.7053C143.242 23.4105 143.2 22.9895 143.495 22.4842C143.747 22.021 143.747 21.3053 143.537 20.7158C143.242 19.9158 142.905 19.7895 140.842 19.7895H138.526V23.5789ZM142.611 21.3053C142.905 22.1053 142.442 22.6105 140.968 22.9474C139.874 23.2421 139.79 23.1579 139.79 21.9368C139.79 20.7579 139.916 20.6316 141.053 20.6316C141.853 20.6316 142.442 20.8842 142.611 21.3053ZM142.905 24.6316C143.2 25.4737 142.063 26.5263 140.8 26.5263C139.958 26.5263 139.79 26.3158 139.79 25.2631C139.79 24.1263 139.916 24 141.221 24C142.105 24 142.737 24.2526 142.905 24.6316Z" fill="white"/>
<path d="M145.263 20.2105C145.263 20.421 145.726 20.6316 146.316 20.6316C147.368 20.6316 147.368 20.6737 147.368 24C147.368 26.6947 147.495 27.3684 148 27.3684C148.505 27.3684 148.632 26.6947 148.632 24C148.632 20.6737 148.632 20.6316 149.684 20.6316C150.274 20.6316 150.737 20.421 150.737 20.2105C150.737 19.9579 149.558 19.7895 148 19.7895C146.442 19.7895 145.263 19.9579 145.263 20.2105Z" fill="white"/>
<path d="M159.579 23.5789C159.579 26.6526 159.705 27.3684 160.211 27.3684C160.674 27.3684 160.842 26.9053 160.842 25.6842C160.842 24.0421 160.884 24 162.316 24C163.748 24 163.79 24.0421 163.79 25.6842C163.79 26.9053 163.958 27.3684 164.421 27.3684C164.926 27.3684 165.053 26.6526 165.053 23.5789C165.053 20.5053 164.926 19.7895 164.421 19.7895C163.958 19.7895 163.79 20.2526 163.79 21.4737C163.79 23.1158 163.748 23.1579 162.316 23.1579C160.884 23.1579 160.842 23.1158 160.842 21.4737C160.842 20.2526 160.674 19.7895 160.211 19.7895C159.705 19.7895 159.579 20.5053 159.579 23.5789Z" fill="white"/>
<path d="M174.737 23.5789C174.737 26.6526 174.863 27.3684 175.368 27.3684C175.874 27.3684 176 26.7789 176.042 24.7158V22.1053L177.011 24.5895C177.516 25.9789 178.147 27.1579 178.358 27.2421C178.611 27.3263 179.116 26.4 179.537 25.1789C180.674 21.8947 181.053 21.8105 181.053 24.7579C181.053 26.2316 181.221 27.3684 181.474 27.3684C181.726 27.3684 181.895 25.8105 181.895 23.5789C181.895 20.1684 181.811 19.7895 181.137 19.7895C180.547 19.7895 180.168 20.421 179.579 22.3158C179.158 23.7474 178.653 24.9684 178.484 25.0947C178.316 25.1789 177.768 24.0421 177.263 22.5263C176.547 20.421 176.168 19.7895 175.537 19.7895C174.821 19.7895 174.737 20.1263 174.737 23.5789Z" fill="white"/>
<path d="M184.421 23.579C184.421 27.2842 185.095 28.8842 185.347 25.7684C185.474 24.2948 185.558 24.2106 187.074 24.0842L188.632 23.9579V25.6421C188.632 26.6106 188.842 27.3684 189.053 27.3684C189.305 27.3684 189.474 25.8106 189.474 23.579C189.474 19.8737 188.8 18.2737 188.547 21.3474C188.421 22.8632 188.337 22.9474 186.947 22.9474C185.558 22.9474 185.474 22.8632 185.347 21.3474C185.095 18.2737 184.421 19.8737 184.421 23.579Z" fill="white"/>
<path d="M131.158 37.7684C131.495 38.9052 132.042 40.6737 132.337 41.7263C132.969 43.7894 132.674 45.3052 131.579 45.7263C130.695 46.1052 130.779 46.7368 131.79 46.7368C132.211 46.7368 132.8 46.4 133.011 45.9789C133.6 44.8421 136.084 36.1263 135.832 35.9158C135.326 35.4105 134.737 36.3789 134.274 38.5684C133.684 41.2631 133.263 41.7263 132.884 40.0842C132 36.5894 131.705 35.7894 131.158 35.7894C130.653 35.7894 130.653 36.0842 131.158 37.7684Z" fill="white"/>
<path d="M137.347 37.9369C137.6 40.2948 138.063 40.8421 140.126 40.8421C141.39 40.8421 141.474 40.9263 141.474 42.3158C141.474 43.1158 141.684 43.7895 141.895 43.7895C142.147 43.7895 142.316 42.1895 142.316 39.7895C142.316 37.3895 142.147 35.7895 141.895 35.7895C141.684 35.7895 141.474 36.7579 141.474 37.9369V40.0421L140.126 39.9158C138.779 39.7895 138.737 39.7053 138.611 37.7684C138.526 36.2948 138.316 35.7895 137.811 35.7895C137.263 35.7895 137.179 36.1684 137.347 37.9369Z" fill="white"/>
<path d="M144.842 41.2631C144.842 44.6316 145.011 46.7368 145.263 46.7368C145.516 46.7368 145.684 45.8947 145.684 44.8421C145.684 43.1158 145.769 42.9894 146.442 43.4105C147.705 44.2105 149.348 43.5368 149.853 42.0631C151.158 38.2737 149.221 34.7789 146.569 36.2105C145.979 36.5052 145.684 36.5052 145.684 36.2105C145.684 36 145.516 35.7894 145.263 35.7894C145.011 35.7894 144.842 37.8947 144.842 41.2631ZM148.379 37.3052C149.137 38.0631 149.263 40.8842 148.632 42.1473C148.126 43.0316 146.948 43.2 146.19 42.4421C145.348 41.6 145.558 37.6 146.442 37.0947C147.411 36.5052 147.621 36.5052 148.379 37.3052Z" fill="white"/>
<path d="M152.842 36.6316C151.579 37.8948 151.621 42.2316 152.926 43.1158C154.4 44.1685 157.053 43.8737 157.053 42.6948C157.053 42.0211 156.379 41.8948 156 42.5263C155.284 43.6632 152.842 42.2737 152.842 40.7158C152.842 40.1263 153.263 40 155.2 40H157.6L157.305 38.6527C156.758 35.9579 154.526 34.9474 152.842 36.6316ZM155.537 37.3053C156.716 38.4842 156.379 39.1579 154.526 39.1579C152.674 39.1579 152.547 38.9474 153.516 37.5579C154.274 36.4632 154.653 36.4211 155.537 37.3053Z" fill="white"/>
<path d="M158.737 36.0421C158.737 36.2105 159.158 37.0526 159.663 37.979L160.632 39.6632L159.453 41.7263C158.442 43.579 158.4 43.7895 159.074 43.7895C159.579 43.7895 160.126 43.2 160.632 42.1053C161.053 41.179 161.642 40.4211 161.979 40.4211C162.358 40.4211 162.526 40.9684 162.526 42.1053C162.526 43.0316 162.737 43.7895 162.948 43.7895C163.2 43.7895 163.369 43.0316 163.369 42.1053C163.369 40.9684 163.537 40.4211 163.916 40.4211C164.253 40.4211 164.842 41.179 165.263 42.1053C165.684 43.0316 166.274 43.7895 166.611 43.7895C167.326 43.7895 167.326 43.7474 166.232 41.4737L165.263 39.5369L166.232 37.8948C167.326 35.9579 167.369 35.7895 166.526 35.7895C166.19 35.7895 165.6 36.5474 165.221 37.4737C164.842 38.4 164.295 39.1579 163.958 39.1579C163.537 39.1579 163.369 38.6526 163.369 37.4737C163.369 36.5474 163.2 35.7895 162.948 35.7895C162.737 35.7895 162.526 36.5474 162.526 37.4737C162.526 38.6105 162.358 39.1579 161.979 39.1579C161.642 39.1579 161.053 38.4 160.632 37.4737C160.211 36.5474 159.621 35.7895 159.284 35.7895C158.99 35.7895 158.737 35.9158 158.737 36.0421Z" fill="white"/>
<path d="M170.105 38.021C170.105 39.4105 169.811 40.8421 169.263 41.8947C168.253 43.8737 168.126 45.8947 169.053 45.8947C169.432 45.8947 169.684 45.5158 169.684 44.8421C169.684 43.8316 169.811 43.7895 172 43.7895C174.19 43.7895 174.316 43.8316 174.316 44.8421C174.316 45.4316 174.526 45.8947 174.737 45.8947C174.99 45.8947 175.158 45.2631 175.158 44.4631C175.158 43.6631 174.99 42.8631 174.737 42.7368C174.526 42.6105 174.316 40.9684 174.316 39.1158V35.7895H172.211H170.105V38.021ZM173.263 40V42.7368L171.874 42.8631L170.442 42.9895L170.737 41.1789C171.326 37.1789 171.411 37.0105 172.337 37.1368C173.179 37.2631 173.263 37.5158 173.263 40Z" fill="white"/>
<path d="M177.684 36.6316C177.053 37.2631 176.842 38.021 176.842 39.7895C176.842 41.5579 177.053 42.3158 177.684 42.9473C178.905 44.1684 181.895 44 181.895 42.6947C181.895 42.021 181.221 41.8947 180.842 42.5263C180.379 43.2421 179.032 42.9895 178.358 42.021C177.179 40.3789 177.474 40 180 40C181.726 40 182.316 39.8316 182.316 39.4105C182.316 38.4421 181.474 36.4631 180.926 36.1263C180 35.5368 178.526 35.7895 177.684 36.6316ZM180.548 37.1368C180.842 37.4316 181.053 37.9789 181.053 38.4C181.053 38.9895 180.716 39.1579 179.369 39.1579C177.516 39.1579 177.39 38.9473 178.358 37.5579C179.074 36.5052 179.79 36.3789 180.548 37.1368Z" fill="white"/>
<path d="M184 39.7895C184 43.0737 184.126 43.7895 184.632 43.7895C185.095 43.7895 185.263 43.3263 185.263 42.1053C185.263 40.4632 185.305 40.4211 186.737 40.4211C188.168 40.4211 188.211 40.4632 188.211 42.1053C188.211 43.3263 188.379 43.7895 188.842 43.7895C189.389 43.7895 189.474 43.1579 189.389 39.9158C189.305 37.4316 189.095 36 188.758 35.9158C188.421 35.7895 188.211 36.379 188.126 37.5579C188 39.2421 187.916 39.3684 186.653 39.4948C185.263 39.6211 185.263 39.6211 185.263 37.7263C185.263 36.2948 185.095 35.7895 184.632 35.7895C184.126 35.7895 184 36.5053 184 39.7895Z" fill="white"/>
<path d="M191.579 39.7895C191.579 44.7158 192.084 44.9263 194.105 40.9263L195.579 38.1053L195.705 40.9263C195.79 43.1158 195.958 43.7895 196.463 43.7895C196.969 43.7895 197.053 43.1158 196.969 39.9158C196.884 37.3895 196.674 36 196.337 35.9158C196.042 35.7895 195.2 37.0105 194.358 38.6105L192.884 41.4737L192.842 38.6105C192.842 36.379 192.716 35.7895 192.211 35.7895C191.705 35.7895 191.579 36.5053 191.579 39.7895Z" fill="white"/>
<path d="M199.958 36.5895C199.158 37.2211 198.989 37.7684 198.989 39.7053C198.947 42.5263 199.832 43.7895 201.895 43.7895C203.284 43.7895 204.589 42.8211 203.832 42.3579C203.621 42.1895 203.326 42.2737 203.158 42.5263C202.442 43.7053 200 42.4 200 40.8C200 40.1263 200.295 40 202.105 40H204.211V38.5684C204.211 36.1263 201.853 35.0316 199.958 36.5895ZM202.695 37.3053C203.874 38.4842 203.537 39.1579 201.684 39.1579C200.505 39.1579 200 38.9895 200 38.5684C200 37.8948 201.095 36.6316 201.684 36.6316C201.895 36.6316 202.358 36.9263 202.695 37.3053Z" fill="white"/>
<path d="M137.684 54.9474C137.684 59.3263 137.769 60.2105 138.316 60.2105C138.821 60.2105 138.947 59.4105 138.947 55.3684V50.5263H141.053C142.232 50.5263 143.158 50.3158 143.158 50.1052C143.158 49.8526 141.979 49.6842 140.421 49.6842H137.684V54.9474Z" fill="white"/>
<path d="M144.421 53.0526C143.79 53.6842 143.579 54.4421 143.579 56.2105C143.579 57.9789 143.79 58.7368 144.421 59.3684C145.474 60.421 146.99 60.4632 148.253 59.4105C149.095 58.7368 149.263 58.2316 149.263 56.2105C149.263 54.1895 149.095 53.6842 148.253 53.0105C146.99 51.9579 145.474 52 144.421 53.0526ZM147.453 53.7684C149.011 55.1579 148.169 59.3684 146.316 59.3684C145.432 59.3684 144.421 57.6842 144.421 56.2105C144.421 54.821 145.432 53.0526 146.19 53.0526C146.442 53.0526 147.032 53.3474 147.453 53.7684Z" fill="white"/>
<path d="M151.158 57.6842C151.158 62.2737 151.242 63.1579 151.79 63.1579C152.253 63.1579 152.421 62.6526 152.421 61.179C152.421 59.6211 152.547 59.3263 152.926 59.7053C153.726 60.5053 155.242 60.2947 155.958 59.2842C156.379 58.7368 156.632 57.4737 156.632 56.2105C156.632 54.9474 156.379 53.6842 155.958 53.1368C155.284 52.1684 153.726 51.9158 152.968 52.6737C152.632 53.0105 152.421 53.0105 152.253 52.6737C151.453 51.3684 151.158 52.6737 151.158 57.6842ZM155.284 54.4421C155.958 55.8316 155.663 58.1895 154.737 58.9474C154.4 59.2 153.768 59.3263 153.263 59.1579C152.547 58.9474 152.421 58.5263 152.421 56.4632C152.421 53.0105 154.063 51.8737 155.284 54.4421Z" fill="white"/>
<path d="M158.737 56.1684C158.737 58.5684 158.905 60.2105 159.158 60.2105C159.411 60.2105 159.579 59.0737 159.579 57.6842C159.579 56.2947 159.705 55.1579 159.916 55.1579C160.084 55.1579 160.589 56.2105 161.053 57.5158C161.516 58.821 162.105 59.8737 162.316 59.9158C162.526 59.9579 163.074 59.0316 163.495 57.8947C164.674 54.6947 165.053 54.6526 165.053 57.6C165.053 59.0737 165.221 60.2105 165.474 60.2105C165.726 60.2105 165.895 58.5684 165.895 56.1684C165.895 52.7158 165.811 52.1684 165.221 52.2947C164.8 52.3789 164.126 53.5158 163.579 55.0737C163.032 56.5474 162.526 57.8105 162.4 57.9368C162.316 58.0631 161.768 56.8421 161.221 55.2842C160.547 53.4316 159.958 52.3789 159.495 52.2947C158.821 52.1684 158.737 52.5474 158.737 56.1684Z" fill="white"/>
<path d="M169.432 52.5474C167.832 53.6 167.453 57.9789 168.842 59.3684C169.305 59.8316 170.19 60.2105 170.779 60.2105C172.126 60.2105 173.558 59.4526 173.263 58.9052C173.095 58.6947 172.674 58.6947 172.126 58.9895C170.863 59.6631 169.263 58.8631 169.263 57.4737C169.263 56.5052 169.39 56.421 171.411 56.421H173.6L173.348 54.8631C172.969 52.6316 170.99 51.4947 169.432 52.5474ZM171.705 53.5579C172 53.8526 172.211 54.4 172.211 54.821C172.211 55.4105 171.874 55.5789 170.737 55.5789C169.6 55.5789 169.263 55.4105 169.263 54.821C169.263 53.9789 170.021 53.0526 170.737 53.0526C170.99 53.0526 171.411 53.2631 171.705 53.5579Z" fill="white"/>
<path d="M176.421 53.979C176.421 56.1684 175.705 58.9474 175.158 58.9474C174.905 58.9474 174.737 59.7053 174.737 60.6316C174.737 61.5579 174.947 62.3158 175.158 62.3158C175.411 62.3158 175.579 61.8526 175.579 61.2632C175.579 60.2526 175.705 60.2105 178.105 60.2105C180.505 60.2105 180.632 60.2526 180.632 61.2632C180.632 61.8526 180.842 62.3158 181.053 62.3158C181.305 62.3158 181.474 61.5579 181.474 60.6316C181.474 59.7053 181.305 58.9474 181.053 58.9474C180.8 58.9474 180.632 57.5579 180.632 55.579V52.2105H178.526H176.421V53.979ZM179.368 56.2105V58.9474H177.895C176.547 58.9474 176.421 58.8632 176.842 58.1474C177.053 57.6842 177.263 56.4632 177.263 55.4105C177.263 53.6421 177.347 53.4737 178.316 53.4737C179.326 53.4737 179.368 53.5579 179.368 56.2105Z" fill="white"/>
<path d="M182.316 52.6316C182.316 52.8421 182.779 53.0526 183.369 53.0526C184.337 53.0526 184.379 53.1368 184.505 56.5053C184.59 58.6947 184.8 60 185.137 60.0842C185.516 60.2105 185.684 59.2842 185.769 56.7579C185.895 53.5158 185.979 53.2632 186.863 53.1368C188.884 52.8421 187.663 52.2105 185.053 52.2105C183.495 52.2105 182.316 52.3789 182.316 52.6316Z" fill="white"/>
<path d="M189.516 53.3053C188.126 55.0737 188.463 58.8211 190.063 59.8737C191.158 60.6316 194.442 59.8316 193.895 58.9053C193.726 58.6948 193.305 58.6948 192.758 58.9895C191.495 59.6632 189.895 58.8632 189.895 57.4737C189.895 56.5053 190.021 56.4211 192 56.4211C194.021 56.4211 194.105 56.379 194.105 55.2421C194.105 52.3369 191.2 51.1579 189.516 53.3053ZM192.168 53.3053C192.547 53.4316 192.842 54.0211 192.842 54.5684C192.842 55.4527 192.632 55.579 191.368 55.579C190.232 55.579 189.895 55.4106 189.895 54.8211C189.895 54.0632 190.653 53.0527 191.2 53.0527C191.368 53.0527 191.789 53.179 192.168 53.3053Z" fill="white"/>
<path d="M196.379 54.1052L197.516 56L196.421 58.1052C195.579 59.7895 195.495 60.2105 196 60.2105C196.337 60.2105 196.968 59.4947 197.432 58.6526L198.232 57.0526L198.863 58.6526C199.242 59.4947 199.832 60.2105 200.211 60.2105C200.758 60.2105 200.674 59.8737 199.789 58.1474L198.737 56.0842L199.832 54.1474C200.716 52.5474 200.8 52.2105 200.253 52.2105C199.874 52.2105 199.242 52.8842 198.863 53.6842L198.147 55.2L197.389 53.6842C196.968 52.8842 196.295 52.2105 195.958 52.2105C195.411 52.2105 195.495 52.5895 196.379 54.1052Z" fill="white"/>
<path d="M202.526 56.2105C202.526 59.4947 202.653 60.2105 203.158 60.2105C203.621 60.2105 203.79 59.7474 203.79 58.5263C203.79 56.8842 203.832 56.8421 205.263 56.8421C206.695 56.8421 206.737 56.8842 206.737 58.5684C206.737 59.7474 206.905 60.2105 207.284 60.1263C207.621 60 207.79 58.821 207.79 56.2105C207.79 53.6 207.621 52.421 207.284 52.2947C206.905 52.2105 206.737 52.6737 206.737 53.8526C206.737 55.5368 206.695 55.5789 205.263 55.5789C203.832 55.5789 203.79 55.5368 203.79 53.8947C203.79 52.6737 203.621 52.2105 203.158 52.2105C202.653 52.2105 202.526 52.9263 202.526 56.2105Z" fill="white"/>
<path d="M210.105 56.2105C210.105 61.1368 210.611 61.3474 212.632 57.3895L214.105 54.5263L214.232 57.3474C214.316 59.5368 214.484 60.2105 214.948 60.2105C215.453 60.2105 215.579 59.4105 215.579 56.2105C215.579 51.2 214.99 50.9474 212.884 55.0316L211.411 57.8947L211.369 55.0316C211.369 52.8 211.242 52.2105 210.737 52.2105C210.232 52.2105 210.105 52.9263 210.105 56.2105Z" fill="white"/>
<path d="M217.684 56.2105C217.684 59.4947 217.811 60.2105 218.316 60.2105C218.779 60.2105 218.947 59.7474 218.947 58.5263C218.947 57.6 219.116 56.8421 219.369 56.8421C219.579 56.8421 220.295 57.6 220.884 58.5263C221.516 59.4526 222.274 60.2105 222.569 60.2105C223.411 60.2105 223.326 59.9579 221.895 57.8526L220.59 56L221.895 54.1052C222.863 52.6737 223.032 52.2105 222.569 52.2105C222.19 52.2105 221.39 52.9684 220.8 53.8947C220.169 54.821 219.495 55.5789 219.326 55.5789C219.116 55.5789 218.947 54.821 218.947 53.8947C218.947 52.6737 218.779 52.2105 218.316 52.2105C217.811 52.2105 217.684 52.9263 217.684 56.2105Z" fill="white"/>
<path d="M225.558 52.9684C225.137 53.3895 224.842 53.8947 224.842 54.021C224.842 54.5263 225.726 54.3158 226.4 53.6842C227.369 52.7158 228.379 53.0947 228.548 54.4421C228.674 55.4526 228.548 55.5789 227.411 55.5789C226.737 55.5789 225.853 55.8737 225.516 56.2526C224.716 57.0105 224.632 58.9895 225.348 59.7052C225.979 60.3368 227.453 60.3789 228.084 59.7474C228.421 59.4105 228.632 59.4105 228.8 59.7474C229.516 60.9263 229.895 59.9579 229.895 56.9263C229.895 54.2316 229.726 53.4737 229.137 52.9263C228.126 52 226.4 52.0421 225.558 52.9684ZM228.632 57.4737C228.632 58.7789 227.2 59.6631 226.274 58.9052C225.095 57.9368 225.937 56.421 227.663 56.421C228.421 56.421 228.632 56.6737 228.632 57.4737Z" fill="white"/>
<path d="M131.874 54.7789C131.032 56.1263 131.032 56.1263 131.874 57.5158C132.926 59.3263 133.726 59.4105 132.8 57.6C132.169 56.3789 132.169 56.1684 132.8 54.8631C133.642 53.0947 132.969 53.0526 131.874 54.7789Z" fill="white"/>
<path d="M133.937 54.821C133.095 56.1684 133.095 56.2105 133.895 57.4737C134.99 59.2 135.832 59.3684 134.948 57.6842C134.274 56.3789 134.274 56.1684 134.905 54.8631C135.748 53.0947 135.074 53.0526 133.937 54.821Z" fill="white"/>
<path d="M232.632 54.7369C233.221 55.8737 233.221 56.1263 232.632 57.2632C231.916 58.6527 231.874 58.9474 232.337 58.9474C232.548 58.9474 233.053 58.3158 233.474 57.5579C234.148 56.2527 234.148 56.0842 233.516 54.8211C233.137 54.0632 232.632 53.4737 232.379 53.4737C232.169 53.4737 232.253 54.0211 232.632 54.7369Z" fill="white"/>
<path d="M234.779 54.8631C235.411 56.1684 235.411 56.3789 234.779 57.6C233.853 59.4105 234.653 59.3263 235.705 57.5158C236.547 56.1263 236.547 56.1263 235.705 54.7789C234.611 53.0526 233.937 53.0947 234.779 54.8631Z" fill="white"/>
<path d="M23.158 57.8947C23.158 59.4526 23.3264 60.6316 23.579 60.6316C23.8316 60.6316 24.0001 59.579 24.0001 58.3158C24.0001 56.0421 24.0001 56 25.2632 56C25.979 56 26.5264 55.7895 26.5264 55.579C26.5264 55.3263 25.7685 55.1579 24.8422 55.1579H23.158V57.8947Z" fill="white"/>
<path d="M27.6633 55.9158C26.7791 56.8842 26.737 59.1158 27.6212 59.9579C28.5055 60.8842 30.1897 60.8 30.737 59.8316C32.2528 56.9263 29.6844 53.6842 27.6633 55.9158ZM30.1055 57.8948C30.1055 59.4106 30.0212 59.579 29.0528 59.579C28.2107 59.579 27.9581 59.3263 27.8739 58.4C27.6633 56.6316 28.0844 55.9158 29.137 56.0842C29.9791 56.2106 30.1055 56.4632 30.1055 57.8948Z" fill="white"/>
<path d="M32 57.8947C32 59.4526 32.1684 60.6316 32.4211 60.6316C32.6737 60.6316 32.8421 60.1684 32.8421 59.579C32.8421 58.7369 33.0526 58.5263 33.8947 58.5263C34.6526 58.5263 34.9895 58.2316 35.2 57.4737C35.5368 56.0842 34.7368 55.1579 33.2211 55.1579C32 55.1579 32 55.1579 32 57.8947ZM34.5263 56.8421C34.5263 57.3895 34.2316 57.6842 33.6842 57.6842C33.1368 57.6842 32.8421 57.3895 32.8421 56.8421C32.8421 56.2947 33.1368 56 33.6842 56C34.2316 56 34.5263 56.2947 34.5263 56.8421Z" fill="white"/>
<path d="M36.2107 57.8947C36.2107 61.0105 37.0107 61.6842 37.0949 58.6105L37.1791 56.6316L37.6002 58.6105C37.8528 59.7474 38.1896 60.6316 38.4002 60.6316C38.5686 60.6316 38.9475 59.7474 39.2423 58.6105L39.7896 56.6316L40.0423 58.7369C40.2949 60.8 40.2949 60.8 40.337 57.979C40.4212 55.8737 40.2949 55.1579 39.8317 55.1579C39.537 55.1579 39.116 55.9158 38.8633 56.9263L38.4844 58.7369L37.937 56.9263C37.6423 55.8737 37.1791 55.1579 36.8423 55.1579C36.337 55.1579 36.2107 55.7895 36.2107 57.8947Z" fill="white"/>
<path d="M41.6843 57.8947V60.6316H43.3685C44.2949 60.6316 45.0527 60.4211 45.0527 60.2105C45.0527 59.9579 44.5054 59.7895 43.7896 59.7895C42.8212 59.7895 42.5264 59.6211 42.5264 58.9474C42.5264 58.3158 42.8212 58.1053 43.5791 58.1053C44.1685 58.1053 44.6317 57.8947 44.6317 57.6842C44.6317 57.4316 44.1685 57.2632 43.5791 57.2632C42.9054 57.2632 42.5264 57.0105 42.5264 56.6316C42.5264 56.2526 42.9054 56 43.5791 56C44.1685 56 44.6317 55.7895 44.6317 55.579C44.6317 55.3263 43.958 55.1579 43.158 55.1579H41.6843V57.8947Z" fill="white"/>
<path d="M46.1474 57.1368C46.0211 58.2737 45.8105 59.8316 45.7263 60.6316C45.6 61.4316 45.6 61.7684 45.7263 61.3895C46.0211 60.421 48.8421 60.2947 48.8421 61.2631C48.8421 61.6 49.0526 61.8947 49.3053 61.8947C49.6421 61.8947 49.7263 61.3473 49.5158 60.3368C49.3895 59.4526 49.2632 57.9368 49.2632 56.9263C49.2632 55.2 49.2211 55.1579 47.8316 55.1579C46.4842 55.1579 46.4 55.2 46.1474 57.1368ZM48.4211 57.8947C48.4211 59.4947 48.2947 59.7895 47.579 59.7895C46.8632 59.7895 46.7369 59.4947 46.7369 58.1895C46.7369 56.4631 46.9895 56 47.8737 56C48.2526 56 48.4211 56.5895 48.4211 57.8947Z" fill="white"/>
<path d="M50.1052 55.579C50.1052 55.7895 50.4 56 50.7368 56C51.2421 56 51.3684 56.5474 51.3684 58.3158C51.3684 59.579 51.5789 60.6316 51.7894 60.6316C52.0421 60.6316 52.2105 59.579 52.2105 58.3158C52.2105 56.5474 52.3368 56 52.8421 56C53.1789 56 53.4736 55.7895 53.4736 55.579C53.4736 55.3263 52.7158 55.1579 51.7894 55.1579C50.8631 55.1579 50.1052 55.3263 50.1052 55.579Z" fill="white"/>
<path d="M54.3159 57.8947V60.6316H56.0001C56.9264 60.6316 57.6843 60.4211 57.6843 60.2105C57.6843 59.9579 57.137 59.7895 56.4212 59.7895C55.4528 59.7895 55.158 59.6211 55.158 58.9474C55.158 58.3158 55.4528 58.1053 56.2107 58.1053C56.8001 58.1053 57.2633 57.8947 57.2633 57.6842C57.2633 57.4316 56.8001 57.2632 56.2107 57.2632C55.537 57.2632 55.158 57.0105 55.158 56.6316C55.158 56.2105 55.5791 56 56.4212 56C57.137 56 57.6843 55.7895 57.6843 55.579C57.6843 55.3263 56.9264 55.1579 56.0001 55.1579H54.3159V57.8947Z" fill="white"/>
<path d="M58.5264 55.4526C58.5685 55.6632 58.8211 56.2526 59.1159 56.8C59.6211 57.6842 59.579 58.0211 58.8632 59.2421C58.1474 60.4211 58.1053 60.6316 58.6527 60.6316C59.0317 60.6316 59.4527 60.2105 59.6211 59.7053L59.8738 58.8211L60.6738 59.8316C61.6843 61.179 62.1053 60.5895 61.2632 58.9895C60.6738 57.8105 60.6738 57.5579 61.2632 56.4211C61.6422 55.7053 61.7264 55.1579 61.5159 55.1579C61.2632 55.1579 60.8422 55.579 60.5896 56.0842L60.0843 57.0526L59.6632 56.0842C59.2422 55.2 58.5264 54.779 58.5264 55.4526Z" fill="white"/>
<path d="M62.7368 57.8947C62.7368 59.4526 62.9052 60.6316 63.1579 60.6316C63.4105 60.6316 63.5789 60.0421 63.5789 59.3263C63.5789 58.2316 63.7052 58.0632 64.5052 58.1895C65.1789 58.2737 65.5579 58.6947 65.7263 59.579C65.8947 60.379 66.021 59.7474 65.9789 57.8947C65.9789 56.2526 65.8947 55.4526 65.8105 56.0842C65.6842 57.0105 65.3894 57.2632 64.5894 57.2632C63.7894 57.2632 63.5789 57.0526 63.5789 56.2105C63.5789 55.6211 63.4105 55.1579 63.1579 55.1579C62.9052 55.1579 62.7368 56.3369 62.7368 57.8947Z" fill="white"/>
<path d="M67.3684 57.8947C67.3684 59.4105 67.5368 60.6316 67.7895 60.6316C68 60.6316 68.6316 59.8316 69.1368 58.8211L70.1053 57.0526L70.3579 58.9474C70.5684 60.6737 70.6105 60.5895 70.6526 57.979C70.6947 56.4211 70.5684 55.1579 70.4 55.1579C70.2316 55.1579 69.6421 55.9579 69.1789 56.9263L68.2526 58.7369V56.9263C68.2105 55.9579 68.0421 55.1579 67.7895 55.1579C67.5368 55.1579 67.3684 56.3369 67.3684 57.8947Z" fill="white"/>
<path d="M72 57.8947C72 60.6316 72.8 61.8947 72.8842 59.2421V57.8947L73.5579 59.2421C73.9368 60 74.4421 60.6316 74.6105 60.6316C75.0316 60.6316 74.6526 59.0316 74.0632 58.2737C73.8526 58.0631 73.9789 57.3473 74.3158 56.6737C75.0316 55.2842 75.0737 55.1579 74.6105 55.1579C74.4 55.1579 73.9368 55.7894 73.5579 56.5052L72.8842 57.8947V56.5052C72.8 53.8947 72 55.1579 72 57.8947Z" fill="white"/>
<path d="M76.2948 57.7684C75.4948 60.4211 75.4948 61.4737 76.2527 60.0842C76.758 59.2 78.7369 59.1158 78.7369 60C78.7369 60.3369 78.9475 60.6316 79.158 60.6316C79.7475 60.6316 79.6632 59.9579 78.779 57.5158C78.4001 56.3369 77.8527 55.3684 77.558 55.2421C77.3053 55.1579 76.758 56.2526 76.2948 57.7684ZM77.8106 58.4842C77.179 58.6948 76.9264 58.1895 77.2632 57.3895C77.558 56.6737 77.6001 56.6737 77.8948 57.4737C78.0632 57.9369 78.0211 58.4 77.8106 58.4842Z" fill="white"/>
</svg>
