<svg width="232" height="83" viewBox="0 0 232 83" fill="none" xmlns="http://www.w3.org/2000/svg">
<g clip-path="url(#clip0_298_1772)">
<path d="M64.8304 37.7732H53.295L46.8157 44.3278L40.2428 37.7732H2.80894C1.76762 37.768 0.76581 37.374 0 36.6683L0 57.9239C0.76863 58.6228 1.77013 59.0101 2.80894 59.0101H14.7563L21.3292 65.546L27.8834 58.9727H64.8304C65.9528 58.9727 67.0293 58.5268 67.823 57.733C68.6167 56.9393 69.0626 55.8628 69.0626 54.7403V33.5221C69.0626 34.6463 68.6173 35.7248 67.8241 36.5215C67.031 37.3182 65.9546 37.7683 64.8304 37.7732Z" fill="#B72025"/>
<path d="M0 0V36.6683C0.76581 37.374 1.76762 37.7681 2.80894 37.7732H40.2615L46.8157 44.3278L53.3699 37.7732H64.9053C66.0295 37.7683 67.1059 37.3182 67.899 36.5215C68.6922 35.7248 69.1375 34.6463 69.1375 33.5221V0H0Z" fill="#EC1F2B"/>
<path d="M64.8304 59.0101H27.8834L21.3292 65.546L14.7563 59.0101H2.80894C1.77013 59.01 0.76863 58.6228 0 57.9239L0 72.1942C0 73.3167 0.445885 74.3933 1.23957 75.187C2.03325 75.9807 3.10971 76.4266 4.23214 76.4266H27.9583L34.5313 83L41.1978 76.4266H64.8304C65.9528 76.4266 67.0293 75.9807 67.823 75.187C68.6167 74.3933 69.0626 73.3167 69.0626 72.1942V54.7777C69.0626 55.9002 68.6167 56.9767 67.823 57.7705C67.0293 58.5642 65.9528 59.0101 64.8304 59.0101Z" fill="#8A171A"/>
<path d="M64.8304 59.0101H27.8834L21.3292 65.546L14.7563 59.0101H2.80894C1.77013 59.01 0.76863 58.6228 0 57.9239L0 59.1974C0.76863 59.8962 1.77013 60.2835 2.80894 60.2836H14.7563L21.3292 66.8569L27.8834 60.2836H64.8304C65.9528 60.2836 67.0293 59.8377 67.823 59.0439C68.6167 58.2502 69.0626 57.1737 69.0626 56.0512V54.7777C69.0626 55.9002 68.6167 56.9767 67.823 57.7705C67.0293 58.5642 65.9528 59.0101 64.8304 59.0101Z" fill="#6C0D0E"/>
<path d="M64.8304 37.7732H53.295L46.8157 44.3278L40.2428 37.7732H2.80894C1.76762 37.768 0.76581 37.374 0 36.6683L0 38.0541C0.76581 38.7598 1.76762 39.1539 2.80894 39.1591H40.2615L46.8157 45.7324L53.3699 39.1591H64.9053C66.0278 39.1591 67.1042 38.7131 67.8979 37.9194C68.6916 37.1257 69.1375 36.0492 69.1375 34.9267V33.5221C69.1375 34.0851 69.0257 34.6425 68.8086 35.162C68.5915 35.6815 68.2733 36.1526 67.8726 36.5481C67.4719 36.9436 66.9967 37.2556 66.4744 37.4659C65.9522 37.6762 65.3934 37.7807 64.8304 37.7732Z" fill="#861619"/>
<path d="M87.8451 4.88782H94.6428V13.1092H95.5042V16.8546H93.8375V14.7384H87.6579V16.8546H85.9912V13.1092H86.8339C87.267 12.1818 87.5393 11.1876 87.6391 10.169C87.7886 8.76325 87.8573 7.35013 87.8451 5.93655V4.88782ZM89.7177 6.53583C89.8333 8.75709 89.5608 10.9815 88.9125 13.1092H92.6578V6.53583H89.7177Z" fill="white"/>
<path d="M96.8523 14.7385V4.88782H104.156V6.55456H98.8373V8.74567H103.8V10.3937H98.8373V13.1092H104.362V14.7572L96.8523 14.7385Z" fill="white"/>
<path d="M106.066 4.88782H113.912V14.7385H111.927V6.53583H108.051V14.7385H106.066V4.88782Z" fill="white"/>
<path d="M124.829 14.7385H122.657L121.721 12.5099H117.788L116.983 14.7385H114.942L118.687 4.88782H120.784L124.829 14.7385ZM121.084 10.8431L119.848 7.19129L118.519 10.9368L121.084 10.8431Z" fill="white"/>
<path d="M125.878 14.7384V4.88781H129.08C129.87 4.84783 130.662 4.89809 131.44 5.03762C132.045 5.16166 132.584 5.50106 132.957 5.99272C133.352 6.53551 133.556 7.19417 133.537 7.86547C133.554 8.39142 133.438 8.91316 133.2 9.38239C133.008 9.7743 132.718 10.1098 132.357 10.3562C132.051 10.5839 131.7 10.7435 131.328 10.8244C130.647 10.9375 129.957 10.9876 129.268 10.9742H127.976V14.7197L125.878 14.7384ZM127.882 6.55455V9.36366H128.968C129.497 9.38962 130.027 9.33916 130.541 9.21384C130.794 9.11726 131.011 8.94481 131.161 8.72016C131.312 8.4955 131.39 8.22966 131.384 7.9591C131.399 7.7967 131.38 7.63296 131.328 7.47824C131.277 7.32352 131.193 7.18118 131.084 7.06019C130.88 6.82648 130.603 6.6682 130.298 6.61073C129.817 6.58123 129.336 6.58123 128.856 6.61073L127.882 6.55455Z" fill="white"/>
<path d="M137.114 14.7385V6.55456H134.193V4.88782H142.02V6.55456H139.099V14.7385H137.114Z" fill="white"/>
<path d="M151.327 14.7385H149.155L148.294 12.5099H144.361L143.556 14.7385H141.44L145.185 4.88782H147.376L151.327 14.7385ZM147.582 10.8431L146.234 7.19129L144.904 10.9368L147.582 10.8431Z" fill="white"/>
<path d="M152.357 14.7385V4.88782H155.428L157.301 11.611L159.061 4.88782H162.057V14.7385H160.185V6.98529L158.312 14.7385H156.44L154.567 6.98529V14.7385H152.357Z" fill="white"/>
<path d="M163.855 14.7385V4.88782H171.177V6.55456H165.84V8.74567H170.802V10.3937H165.84V13.1092H171.458V14.7572L163.855 14.7385Z" fill="white"/>
<path d="M173.05 14.7385V4.88782H175.035V8.7644H178.948V4.88782H180.933V14.7385H178.948V10.4311H175.035V14.7385H173.05Z" fill="white"/>
<path d="M185.203 14.7385V6.55456H182.282V4.88782H190.128V6.55456H187.263V14.7385H185.203Z" fill="white"/>
<path d="M87.0771 22.9037H88.9498V29.4583L92.9385 22.9037H94.9235V32.7543H93.0508V26.3308L89.0621 32.7543H87.0771V22.9037Z" fill="white"/>
<path d="M96.946 32.7543V22.9037H98.931V26.7803H102.845V22.9037H104.867V32.7543H102.845V28.447H98.931V32.7543H96.946Z" fill="white"/>
<path d="M112.732 31.6119V32.7543H110.86V31.6119C110.255 31.647 109.649 31.5626 109.077 31.3633C108.505 31.1641 107.978 30.854 107.526 30.4508C106.874 29.6989 106.527 28.7303 106.553 27.7354C106.532 27.2339 106.613 26.7334 106.79 26.2637C106.967 25.794 107.236 25.3646 107.583 25.0012C108.49 24.2196 109.664 23.8173 110.86 23.8775V22.9037H112.732V23.8775C113.337 23.8424 113.943 23.9269 114.515 24.1261C115.087 24.3254 115.614 24.6354 116.066 25.0386C116.399 25.4044 116.657 25.8327 116.824 26.2988C116.992 26.7649 117.065 27.2596 117.039 27.7541C117.095 28.7414 116.759 29.7108 116.103 30.4508C115.646 30.8586 115.113 31.1713 114.535 31.3707C113.956 31.5701 113.343 31.6521 112.732 31.6119ZM110.86 29.9452V25.5443C110.526 25.5067 110.188 25.5372 109.866 25.6337C109.544 25.7303 109.245 25.891 108.987 26.1061C108.784 26.3381 108.63 26.6085 108.533 26.9012C108.437 27.194 108.4 27.5031 108.425 27.8103C108.407 29.2336 109.212 29.9639 110.785 29.9639L110.86 29.9452ZM112.732 29.9452C113.196 29.9634 113.658 29.8736 114.081 29.683C114.415 29.5415 114.696 29.2993 114.886 28.9901C115.058 28.5755 115.135 28.1275 115.111 27.6792C115.111 26.2559 114.324 25.5443 112.732 25.5443V29.9452Z" fill="white"/>
<path d="M118.238 27.8851C118.214 27.0206 118.367 26.1604 118.687 25.3569C118.918 24.8608 119.228 24.4054 119.605 24.0086C119.968 23.6352 120.401 23.3362 120.878 23.1284C121.556 22.8549 122.282 22.7212 123.013 22.7351C123.655 22.7076 124.296 22.8132 124.896 23.0453C125.495 23.2773 126.04 23.6308 126.496 24.0835C126.952 24.5901 127.302 25.182 127.527 25.8249C127.752 26.4678 127.847 27.149 127.807 27.829C127.85 28.5077 127.757 29.1881 127.536 29.8309C127.314 30.4738 126.967 31.0664 126.515 31.5744C125.556 32.4365 124.312 32.9133 123.022 32.9133C121.733 32.9133 120.489 32.4365 119.53 31.5744C118.629 30.5633 118.165 29.2372 118.238 27.8851ZM120.298 27.8851C120.226 28.7946 120.5 29.6977 121.066 30.4133C121.313 30.6866 121.615 30.905 121.952 31.0545C122.289 31.2039 122.654 31.2811 123.022 31.2811C123.391 31.2811 123.756 31.2039 124.093 31.0545C124.43 30.905 124.732 30.6866 124.979 30.4133C125.547 29.677 125.821 28.7559 125.747 27.829C125.812 26.9233 125.546 26.0248 124.998 25.3008C124.742 25.0363 124.434 24.826 124.095 24.6824C123.756 24.5389 123.391 24.4649 123.022 24.4649C122.654 24.4649 122.289 24.5389 121.95 24.6824C121.611 24.826 121.303 25.0363 121.047 25.3008C120.499 26.0248 120.233 26.9233 120.298 27.829V27.8851Z" fill="white"/>
<path d="M129.361 32.7543V22.9037H132.545C133.341 22.875 134.137 22.9252 134.923 23.0535C135.489 23.2086 135.988 23.544 136.346 24.0086C136.728 24.5574 136.924 25.2133 136.908 25.8814C136.921 26.4049 136.812 26.9242 136.59 27.3983C136.392 27.7862 136.102 28.1203 135.747 28.3721C135.439 28.5964 135.089 28.7557 134.717 28.8403C134.03 28.9536 133.334 29.0037 132.638 28.9901H131.346V32.7356L129.361 32.7543ZM131.346 24.5705V27.3608H132.432C132.961 27.3966 133.493 27.346 134.005 27.211C134.207 27.1338 134.387 27.0094 134.531 26.8481C134.674 26.6868 134.777 26.4934 134.83 26.2842C134.883 26.075 134.885 25.8561 134.836 25.6459C134.787 25.4356 134.689 25.2402 134.549 25.0761C134.337 24.8445 134.053 24.6924 133.743 24.6454C133.264 24.602 132.781 24.602 132.301 24.6454L131.346 24.5705Z" fill="white"/>
<path d="M138.331 32.7543V22.9037H141.309L143.181 29.6268L144.941 22.9037H147.938V32.7543H146.065V25.0012L144.192 32.7543H142.32L140.447 25.0012V32.7543H138.331Z" fill="white"/>
<path d="M158.724 32.7543H156.552L155.709 30.5258H151.683L150.878 32.7543H148.837L152.582 22.9037H154.679L158.724 32.7543ZM154.979 28.859L153.631 25.2072L152.301 28.859H154.979Z" fill="white"/>
<path d="M159.81 22.9037H161.814V31.1063H165.671V22.9037H167.656V31.1063H168.537V34.8518H166.889V32.7543H159.81V22.9037Z" fill="white"/>
<path d="M169.866 22.9037H171.739V29.4583L175.728 22.9037H177.713V32.7543H175.84V26.3308L171.87 32.7543H169.866V22.9037Z" fill="white"/>
<path d="M179.342 27.8852C179.312 27.022 179.459 26.1618 179.772 25.357C179.996 24.8569 180.307 24.4004 180.69 24.0086C181.048 23.6297 181.482 23.33 181.963 23.1284C182.635 22.8565 183.355 22.7227 184.079 22.7352C184.725 22.7051 185.369 22.8094 185.972 23.0415C186.575 23.2736 187.123 23.6285 187.581 24.0835C188.494 25.1111 188.965 26.4567 188.892 27.829C188.931 28.5089 188.835 29.1898 188.61 29.8326C188.385 30.4754 188.036 31.0673 187.581 31.5745C186.625 32.4352 185.384 32.9114 184.098 32.9114C182.812 32.9114 181.571 32.4352 180.615 31.5745C179.721 30.5605 179.264 29.2347 179.342 27.8852ZM181.383 27.8852C181.316 28.7971 181.597 29.7005 182.169 30.4134C182.4 30.6858 182.687 30.9053 183.01 31.0572C183.333 31.209 183.685 31.2897 184.042 31.2936C184.397 31.2896 184.747 31.2108 185.07 31.0624C185.393 30.914 185.68 30.6992 185.915 30.4321C186.482 29.6958 186.756 28.7747 186.682 27.8477C186.747 26.9421 186.481 26.0436 185.933 25.3195C185.695 25.0602 185.406 24.8531 185.083 24.7112C184.761 24.5694 184.413 24.496 184.061 24.4955C183.688 24.4796 183.316 24.547 182.973 24.6928C182.63 24.8386 182.323 25.0591 182.076 25.3383C181.556 26.06 181.311 26.9428 181.383 27.829V27.8852Z" fill="white"/>
<path d="M190.465 32.7543V22.9037H192.45V26.7803H196.345V22.9037H198.349V32.7543H196.345V28.447H192.45V32.7543H190.465Z" fill="white"/>
<path d="M200.371 32.7543V22.9037H202.356V26.7803H206.27V22.9037H208.255V32.7543H206.27V28.447H202.356V32.7543H200.371Z" fill="white"/>
<path d="M210.409 22.9037H212.394V26.8364H215.053C215.691 26.8106 216.327 26.9125 216.925 27.1361C217.439 27.3331 217.878 27.6869 218.18 28.1474C218.52 28.6497 218.697 29.2449 218.686 29.8516C218.699 30.4141 218.546 30.9681 218.246 31.4443C217.946 31.9206 217.513 32.298 217 32.5296C216.392 32.7011 215.76 32.7769 215.128 32.7543H210.484L210.409 22.9037ZM212.394 31.1063H214.266C214.699 31.1186 215.132 31.0872 215.558 31.0127C215.817 30.953 216.048 30.8078 216.214 30.6007C216.405 30.3843 216.506 30.1027 216.495 29.8141C216.506 29.6227 216.469 29.4314 216.388 29.2579C216.306 29.0845 216.182 28.9344 216.027 28.8216C215.503 28.5677 214.921 28.4578 214.341 28.5032H212.319L212.394 31.1063ZM219.772 22.9037H221.776V32.7543H219.772V22.9037Z" fill="white"/>
<path d="M222.843 32.7543L226.214 27.623L223.161 22.9037H225.502L227.375 26.0686L229.247 22.9037H231.551L228.479 27.6979L231.85 32.7543H229.453L227.262 29.3459L225.071 32.7543H222.843Z" fill="white"/>
<path d="M89.2682 50.7888V42.5862H86.3281V40.9194H94.1744V42.5862H91.2531V50.7888H89.2682Z" fill="white"/>
<path d="M95.5042 50.7888V40.9194H102.826V42.5862H97.3768V44.7773H102.321V46.444H97.3768V49.1221H102.995V50.7888H95.5042Z" fill="white"/>
<path d="M103.631 50.7888L107.002 45.6387L103.95 40.9194H106.29L108.257 44.0844L110.129 40.9194H112.433L109.362 45.7137L112.732 50.7888H110.485L108.294 47.3617L106.103 50.7888H103.631Z" fill="white"/>
<path d="M113.837 50.7888V40.9194H115.822V44.796H119.736V40.9194H121.721V50.7888H119.736V46.4628H115.822V50.7888H113.837Z" fill="white"/>
<path d="M123.369 45.9197C123.342 45.0549 123.495 44.194 123.818 43.3915C124.049 42.8896 124.359 42.428 124.736 42.0244C125.099 41.6511 125.531 41.3521 126.009 41.1442C126.687 40.8708 127.413 40.737 128.144 40.751C128.786 40.7235 129.427 40.8291 130.026 41.0611C130.626 41.2932 131.171 41.6466 131.627 42.0993C132.082 42.6059 132.433 43.1978 132.658 43.8407C132.883 44.4837 132.978 45.1648 132.938 45.8448C133.018 47.2148 132.553 48.5609 131.646 49.5903C130.689 50.4562 129.444 50.9357 128.153 50.9357C126.863 50.9357 125.618 50.4562 124.661 49.5903C123.763 48.5849 123.299 47.2658 123.369 45.9197ZM125.429 45.9197C125.364 46.8341 125.637 47.7402 126.196 48.4667C126.432 48.7319 126.72 48.9455 127.042 49.0937C127.365 49.242 127.714 49.3218 128.069 49.3281C128.424 49.3241 128.774 49.2454 129.097 49.0969C129.42 48.9485 129.708 48.7337 129.942 48.4667C130.505 47.7353 130.778 46.8216 130.709 45.901C130.787 44.994 130.52 44.0911 129.96 43.3728C129.727 43.1063 129.439 42.8932 129.116 42.7478C128.793 42.6024 128.442 42.5281 128.088 42.5301C127.715 42.5155 127.344 42.5835 127.001 42.7292C126.658 42.8748 126.351 43.0946 126.103 43.3728C125.608 44.0968 125.382 44.9717 125.466 45.8448L125.429 45.9197Z" fill="white"/>
<path d="M134.829 40.9194H141.758V50.7888H139.773V42.5862H136.796V46.8186C136.819 47.6562 136.788 48.4945 136.702 49.3281C136.647 49.7581 136.433 50.1521 136.103 50.433C135.684 50.7478 135.163 50.8948 134.642 50.845C134.417 50.845 133.987 50.845 133.369 50.845V49.3093H133.818C134.109 49.3366 134.402 49.2781 134.661 49.1408C134.811 49.0284 134.885 48.7662 134.885 48.3168V40.9194H134.829Z" fill="white"/>
<path d="M143.406 45.9197C143.379 45.0549 143.532 44.1939 143.855 43.3915C144.079 42.8857 144.39 42.423 144.773 42.0244C145.147 41.6692 145.585 41.3894 146.065 41.2004C146.743 40.927 147.469 40.7932 148.2 40.8071C148.842 40.7797 149.483 40.8853 150.082 41.1173C150.682 41.3493 151.227 41.7028 151.683 42.1555C152.595 43.183 153.066 44.5287 152.994 45.901C153.035 46.5811 152.94 47.2625 152.715 47.9056C152.49 48.5486 152.139 49.1404 151.683 49.6465C151.232 50.1005 150.69 50.4551 150.093 50.6873C149.497 50.9195 148.858 51.0243 148.219 50.9948C147.573 51.0249 146.929 50.9206 146.326 50.6885C145.723 50.4564 145.175 50.1015 144.717 49.6465C144.262 49.1433 143.912 48.5546 143.687 47.9148C143.462 47.275 143.366 46.5968 143.406 45.9197ZM145.466 45.9197C145.402 46.834 145.675 47.7402 146.234 48.4666C146.483 48.7373 146.785 48.9534 147.122 49.1013C147.459 49.2491 147.823 49.3254 148.191 49.3254C148.558 49.3254 148.922 49.2491 149.259 49.1013C149.596 48.9534 149.898 48.7373 150.147 48.4666C150.711 47.7353 150.984 46.8216 150.915 45.901C150.993 44.994 150.725 44.0911 150.166 43.3728C149.933 43.1063 149.645 42.8931 149.321 42.7477C148.998 42.6023 148.648 42.5281 148.294 42.53C147.921 42.5154 147.55 42.5834 147.207 42.7291C146.863 42.8748 146.557 43.0946 146.309 43.3728C145.74 44.069 145.441 44.9464 145.466 45.8448V45.9197Z" fill="white"/>
<path d="M154.623 40.9194H161.308V42.5674H156.608V50.7888H154.623V40.9194Z" fill="white"/>
<path d="M162.357 40.9194H164.23V47.4928L168.218 40.9194H170.203V50.7888H168.331V44.3466L164.342 50.7888H162.357V40.9194Z" fill="white"/>
<path d="M172.282 40.9195H174.155V47.4928L178.162 40.9195H180.035V50.7888H178.162V44.3466L174.173 50.7888H172.282V40.9195ZM177.394 38.4662H178.312C178.289 39.0101 178.062 39.5253 177.675 39.9082C177.263 40.246 176.747 40.4306 176.215 40.4306C175.682 40.4306 175.166 40.246 174.754 39.9082C174.367 39.5253 174.14 39.0101 174.117 38.4662H175.035C175.053 38.7429 175.173 39.003 175.372 39.1966C175.617 39.3707 175.914 39.4565 176.215 39.44C176.514 39.4509 176.809 39.3656 177.057 39.1966C177.249 39.0002 177.362 38.7404 177.376 38.4662H177.394Z" fill="white"/>
<path d="M93.3318 65.1527H86.8337V74.9284H88.5191V66.7071H93.3318V65.1527Z" fill="#6F6F6F"/>
<path d="M99.7175 65.546C98.9724 65.1158 98.1246 64.8957 97.2643 64.9093C96.6364 64.8885 96.0112 65.0013 95.4301 65.2402C94.8491 65.4791 94.3253 65.8387 93.8936 66.2951C92.9846 67.3247 92.5142 68.6689 92.5827 70.0406C92.5791 70.8826 92.7646 71.7146 93.1258 72.4752C93.4871 73.2484 94.0664 73.8993 94.7924 74.3479C95.5365 74.8009 96.3933 75.0346 97.2643 75.0221C98.0946 75.0237 98.9121 74.8177 99.6425 74.4228C100.392 73.9854 100.992 73.3329 101.365 72.5501C101.754 71.7306 101.955 70.8351 101.955 69.9282C101.955 69.0214 101.754 68.1259 101.365 67.3064C100.997 66.5734 100.424 65.9623 99.7175 65.546ZM100.223 69.9657C100.282 70.9173 99.9891 71.8573 99.3991 72.6063C99.1276 72.8993 98.7968 73.131 98.4287 73.286C98.0605 73.441 97.6636 73.5157 97.2643 73.5052C96.8671 73.5206 96.4715 73.4479 96.1057 73.2925C95.7399 73.1371 95.4129 72.9028 95.1482 72.6063C94.5534 71.9103 94.2513 71.0108 94.3056 70.0968C94.2454 69.1275 94.553 68.1712 95.167 67.4188C95.4511 67.1204 95.7944 66.8846 96.1749 66.7266C96.5554 66.5686 96.9648 66.4918 97.3767 66.5011C97.9201 66.4877 98.455 66.6378 98.9122 66.9319C99.3781 67.2207 99.7442 67.6456 99.9609 68.1491C100.179 68.7544 100.269 69.3987 100.223 70.0406V69.9657Z" fill="#6F6F6F"/>
<path d="M108.893 65.7145C108.525 65.4618 108.101 65.3012 107.657 65.2464C107.175 65.1675 106.685 65.1362 106.197 65.1527H102.451V74.9097H104.137V71.1642H106.309C106.828 71.2155 107.353 71.1623 107.851 71.008C108.35 70.8536 108.812 70.6011 109.212 70.2653C109.748 69.671 110.036 68.8935 110.017 68.0929C110.026 67.62 109.924 67.1515 109.717 66.7258C109.54 66.3201 109.255 65.9704 108.893 65.7145ZM107.882 69.2915C107.425 69.5985 106.876 69.7375 106.328 69.6848H104.137V66.7071H106.29C106.657 66.6645 107.028 66.6645 107.395 66.7071C107.658 66.7794 107.889 66.9376 108.051 67.1566C108.223 67.4169 108.308 67.725 108.294 68.0368C108.333 68.2636 108.317 68.4968 108.245 68.7156C108.173 68.9344 108.048 69.1321 107.882 69.2915Z" fill="#6F6F6F"/>
<path d="M119.661 70.0594C119.685 69.1472 119.492 68.2424 119.099 67.4188C118.732 66.6497 118.154 66.0004 117.433 65.5461C116.688 65.1158 115.84 64.8958 114.979 64.9093C114.349 64.8906 113.722 65.0043 113.138 65.243C112.554 65.4817 112.027 65.8401 111.59 66.2952C110.688 67.3288 110.219 68.6701 110.279 70.0407C110.274 70.8849 110.466 71.7186 110.841 72.4752C111.202 73.2485 111.782 73.8993 112.508 74.348C113.25 74.8038 114.108 75.0378 114.979 75.0221C115.809 75.0214 116.626 74.8155 117.358 74.4229C118.107 73.991 118.702 73.3364 119.062 72.5501C119.444 71.7746 119.649 70.9238 119.661 70.0594ZM117.938 70.0594C118.005 71.0149 117.704 71.9599 117.096 72.6999C116.826 72.9949 116.495 73.228 116.127 73.3831C115.758 73.5383 115.36 73.6119 114.961 73.5989C114.567 73.6128 114.174 73.5394 113.812 73.384C113.449 73.2286 113.125 72.995 112.863 72.6999C112.562 72.3588 112.331 71.9615 112.183 71.5309C112.035 71.1003 111.974 70.6448 112.002 70.1905C111.923 69.1871 112.238 68.1925 112.882 67.4188C113.159 67.1486 113.487 66.9365 113.848 66.795C114.208 66.6534 114.593 66.5854 114.979 66.5948C115.529 66.5788 116.071 66.7289 116.534 67.0255C116.995 67.3197 117.36 67.743 117.582 68.2428C117.833 68.8095 117.967 69.421 117.976 70.0407L117.938 70.0594Z" fill="#6F6F6F"/>
<path d="M126.852 65.1527H120.71V66.7258C120.901 68.9923 120.548 71.2717 119.68 73.3741H118.856V77.1195H120.41V74.9097H126.14V77.1008H127.695V73.3553H126.852V65.1527ZM125.166 66.7071V73.3741H121.421C121.816 72.3673 122.056 71.3065 122.133 70.2278C122.264 69.14 122.339 68.0461 122.358 66.9505V66.7071H125.166Z" fill="#6F6F6F"/>
<path d="M131.833 65.1528L128.088 74.9285H129.961L130.99 72.1006H134.567L135.578 74.9098H137.451L133.444 65.134L131.833 65.1528ZM131.421 70.6586L132.32 68.2053C132.455 67.8761 132.567 67.5383 132.657 67.1941C132.769 67.5499 132.901 67.9431 133.069 68.3739L133.93 70.6586H131.421Z" fill="#6F6F6F"/>
<path d="M146.365 71.8009C146.252 72.1006 146.159 72.3815 146.084 72.625L145.84 71.9133L143.593 65.1527H141.346V74.9097H142.975V68.1304L145.297 74.9097H146.739L149.061 68.2053V74.9097H150.69V65.1527H148.649L146.365 71.8009Z" fill="#6F6F6F"/>
<path d="M158.818 65.546C158.081 65.1128 157.238 64.8924 156.383 64.9093C155.752 64.887 155.124 64.9991 154.54 65.238C153.955 65.4769 153.428 65.8372 152.994 66.2951C152.085 67.3247 151.614 68.6689 151.683 70.0406C151.678 70.8848 151.87 71.7186 152.245 72.4751C152.599 73.2471 153.172 73.8982 153.893 74.3479C154.637 74.8009 155.493 75.0346 156.364 75.0221C157.195 75.0237 158.012 74.8177 158.743 74.4228C159.496 73.991 160.098 73.337 160.465 72.5501C160.841 71.7731 161.039 70.9223 161.046 70.0593C161.076 69.1465 160.883 68.2402 160.484 67.4187C160.129 66.6418 159.548 65.9894 158.818 65.546ZM159.342 69.9657C159.409 70.9212 159.107 71.8662 158.499 72.6062C158.229 72.9012 157.899 73.1343 157.53 73.2894C157.162 73.4446 156.764 73.5182 156.364 73.5052C155.967 73.5205 155.572 73.4479 155.206 73.2925C154.84 73.1371 154.513 72.9028 154.248 72.6062C153.653 71.9102 153.351 71.0108 153.406 70.0968C153.351 69.125 153.665 68.1684 154.286 67.4187C154.562 67.1476 154.89 66.935 155.251 66.7934C155.611 66.6518 155.996 66.5843 156.383 66.5947C156.932 66.5844 157.472 66.734 157.937 67.0255C158.398 67.3154 158.758 67.7405 158.967 68.2427C159.212 68.8108 159.339 69.4222 159.342 70.0406V69.9657Z" fill="#6F6F6F"/>
<path d="M169.398 71.389C169.314 72.0226 169.009 72.6062 168.537 73.037C168.086 73.4118 167.512 73.6054 166.926 73.5801C166.407 73.5811 165.897 73.4454 165.447 73.1868C164.998 72.8978 164.657 72.4704 164.473 71.9696C164.058 70.7556 164.058 69.438 164.473 68.2241C164.643 67.7116 164.971 67.266 165.409 66.9506C165.901 66.6206 166.485 66.4565 167.076 66.4824C167.583 66.4578 168.084 66.6028 168.499 66.8944C168.917 67.2529 169.218 67.7294 169.361 68.2615V68.4675L171.008 68.0743V67.8495C170.787 67.0082 170.293 66.264 169.604 65.7333C168.875 65.2082 167.993 64.9383 167.095 64.9655C166.27 64.9614 165.458 65.1677 164.735 65.5648C163.94 65.963 163.301 66.6156 162.919 67.4188C162.513 68.2386 162.314 69.145 162.338 70.0594C162.368 70.9255 162.565 71.7776 162.919 72.5688C163.232 73.3322 163.767 73.9844 164.454 74.4416C165.228 74.9034 166.119 75.1311 167.02 75.097C167.964 75.1252 168.89 74.8276 169.641 74.2543C170.391 73.6216 170.911 72.7593 171.121 71.801V71.5763L169.435 71.1643L169.398 71.389Z" fill="#6F6F6F"/>
<path d="M175.091 69.9095L175.503 69.6098C175.878 69.1419 176.164 68.6085 176.346 68.0367C176.487 67.6186 176.696 67.2264 176.964 66.8756C177.171 66.7148 177.433 66.6409 177.694 66.6696H178.405V65.2089H178.256C178.256 65.2089 178.256 65.2089 177.432 65.2089C177.036 65.2009 176.647 65.3047 176.308 65.5085C175.98 65.668 175.701 65.9141 175.503 66.2202C175.247 66.6439 175.028 67.0887 174.847 67.5498C174.654 68.0896 174.376 68.5953 174.023 69.048C173.783 69.2187 173.495 69.3104 173.2 69.3102V65.1527H171.514V74.9097H173.2V70.5837C173.479 70.5976 173.745 70.7104 173.949 70.902C174.353 71.3151 174.7 71.7813 174.979 72.2879L176.608 74.9097H178.686L176.552 71.4639C176.198 70.8351 175.696 70.3017 175.091 69.9095Z" fill="#6F6F6F"/>
<path d="M186.121 69.6848C186.384 69.5088 186.607 69.279 186.776 69.0106C187.012 68.6349 187.135 68.1995 187.132 67.7559C187.114 67.2818 186.962 66.8226 186.693 66.4314C186.425 66.0403 186.051 65.7333 185.615 65.546C185.02 65.3124 184.381 65.2102 183.742 65.2464H179.997V74.9097H183.742C184.264 74.9141 184.785 74.8639 185.297 74.7599C185.695 74.6681 186.071 74.4961 186.401 74.2543C186.728 74.0043 186.985 73.6757 187.151 73.2992C187.355 72.8929 187.458 72.443 187.45 71.9883C187.464 71.4276 187.286 70.879 186.945 70.4339C186.728 70.1273 186.446 69.8716 186.121 69.6848ZM183.873 73.4303H181.776V70.6212H183.649C184.084 70.6071 184.52 70.6576 184.941 70.771C185.199 70.8415 185.425 71.0006 185.577 71.2204C185.73 71.454 185.808 71.7282 185.802 72.007C185.809 72.2429 185.75 72.4761 185.634 72.6812C185.58 72.8165 185.497 72.9381 185.39 73.037C185.205 73.1591 184.993 73.2361 184.772 73.2617C184.476 73.3239 184.176 73.3615 183.873 73.3741V73.4303ZM185.278 68.636C185.129 68.8323 184.918 68.9712 184.679 69.0293C184.309 69.1023 183.932 69.1337 183.555 69.123H181.682V66.7071H183.312C183.77 66.6886 184.229 66.7263 184.679 66.8195C184.89 66.884 185.07 67.024 185.184 67.2128C185.316 67.4192 185.381 67.661 185.372 67.9057C185.415 68.1346 185.382 68.3714 185.278 68.5799V68.636Z" fill="#6F6F6F"/>
<path d="M198.087 65.1527H196.401V74.9472H198.087V65.1527Z" fill="#6F6F6F"/>
<path d="M191.944 69.1416H189.941V65.1527H188.255V74.9097H192.001C192.522 74.9762 193.052 74.9322 193.555 74.7806C194.058 74.6289 194.524 74.373 194.922 74.0295C195.41 73.4726 195.68 72.7571 195.68 72.0163C195.68 71.2755 195.41 70.56 194.922 70.0031C194.509 69.6662 194.033 69.4163 193.521 69.2682C193.01 69.1202 192.473 69.0771 191.944 69.1416ZM189.941 70.6398H191.364C191.909 70.6223 192.455 70.6599 192.993 70.7522C193.271 70.8003 193.52 70.9548 193.686 71.1829C193.878 71.4136 193.978 71.707 193.967 72.007C193.986 72.2109 193.956 72.4166 193.877 72.6059C193.799 72.7953 193.675 72.9626 193.517 73.0931C193.045 73.3592 192.503 73.4767 191.963 73.4302H189.941V70.6398Z" fill="#6F6F6F"/>
</g>
<defs>
<clipPath id="clip0_298_1772">
<rect width="232" height="83" fill="white"/>
</clipPath>
</defs>
</svg>
