<svg width="284" height="54" viewBox="0 0 284 54" fill="none" xmlns="http://www.w3.org/2000/svg">
<g clip-path="url(#clip0_298_1740)">
<path d="M30.7374 30.6176L20.0002 37.2293L9.26303 30.6176L2.62551 19.9222L9.26303 9.22678L20.0002 2.61509L30.7374 9.22678L37.3749 19.9222L30.7374 30.6176ZM19.844 39.4781L20.003 39.5493L20.1565 39.4745C25.6383 36.7974 29.5248 34.4153 32.5345 31.4629C35.5624 28.4927 37.6939 24.9541 39.6767 19.9796L39.7008 19.9191L39.6744 19.8595C37.5828 15.1283 35.7531 11.5505 32.9047 8.50203C30.0699 5.468 26.236 2.9684 20.1565 0.364369L20.0001 0.297566L19.844 0.364422C14.7945 2.53015 11.1868 4.67889 8.20967 7.64163C5.21485 10.622 2.86765 14.4169 0.327298 19.8565L0.297852 19.9196L0.325357 19.9835C2.55169 25.157 4.7364 28.8294 7.72948 31.816C10.7051 34.7853 14.4701 37.0671 19.844 39.4781Z" fill="#0C68E9"/>
<path d="M19.2187 2.87934C19.3732 9.74448 18.8058 14.463 12.9688 17.1984L17.5391 18.9105L20 19.9221L27.0312 17.1984C24.3679 16.4123 20.1894 12.7053 20.7812 2.87934L20 2.41241L19.2187 2.87934Z" fill="#0C68E9"/>
<path d="M19.2187 36.965C19.3732 30.0998 19.9723 24.5128 12.9688 22.6459L16.2891 21.323L20 19.9222L23.8672 21.4397L27.0312 22.6459C23.3815 23.6285 20.1894 27.1391 20.7812 36.965L20 37.4319L19.2187 36.965Z" fill="#0C68E9"/>
<path d="M5.54688 20.7004H18.125L20 19.9222L18.125 19.144H5.54688V20.7004Z" fill="#0C68E9"/>
<path d="M21.9531 19.144L20 19.9222L21.9531 20.7004H34.4531V19.144H21.9531Z" fill="#0C68E9"/>
</g>
<path d="M60.3744 33.4036C58.917 33.4036 57.5717 33.1345 56.3385 32.5964C55.1278 32.0359 54.0291 31.2287 53.0426 30.1749L55.6659 27.0808C56.2488 27.6413 56.9215 28.1234 57.6838 28.5269C58.4686 28.9305 59.343 29.1323 60.3071 29.1323C61.8766 29.1323 63.121 28.5718 64.0403 27.4507C64.9595 26.3296 65.4192 24.5023 65.4192 21.9687C65.4192 19.5248 64.9595 17.7423 64.0403 16.6212C63.121 15.5001 61.8318 14.9396 60.1726 14.9396C59.3654 14.9396 58.6255 15.0965 57.9529 15.4104C57.2802 15.7243 56.63 16.1503 56.0022 16.6885L53.3789 13.527C54.1861 12.7647 55.2063 12.1033 56.4394 11.5428C57.6726 10.9598 59.0067 10.6683 60.4416 10.6683C62.3026 10.6683 63.973 11.0943 65.4528 11.9463C66.955 12.7759 68.1434 14.0427 69.0178 15.7468C69.8922 17.4284 70.3295 19.5696 70.3295 22.1705C70.3295 24.7489 69.8698 26.879 68.9505 28.5606C68.0537 30.2198 66.8542 31.4417 65.3519 32.2265C63.8497 33.0112 62.1905 33.4036 60.3744 33.4036ZM57.6838 23.7848V19.6481H67.5044V23.7848H57.6838ZM73.1414 33L79.9687 11.0719H85.888L92.7153 33H87.4687L84.6436 21.9014C84.3745 20.8028 84.083 19.6369 83.7691 18.4037C83.4552 17.1705 83.1638 15.9822 82.8947 14.8387H82.7602C82.4911 15.9822 82.2109 17.1705 81.9194 18.4037C81.6279 19.6369 81.3364 20.8028 81.0449 21.9014L78.1862 33H73.1414ZM77.6481 27.787V23.9193H88.1413V27.787H77.6481ZM96.1999 33V11.0719H103.969C105.561 11.0719 106.996 11.2961 108.274 11.7446C109.574 12.1706 110.606 12.8993 111.368 13.9306C112.153 14.962 112.545 16.3634 112.545 18.1346C112.545 19.8387 112.153 21.24 111.368 22.3386C110.583 23.4373 109.541 24.2557 108.24 24.7938C106.94 25.3095 105.516 25.5673 103.969 25.5673H101.144V33H96.1999ZM101.144 21.6324H103.666C105.034 21.6324 106.043 21.3297 106.693 20.7243C107.366 20.1189 107.702 19.2557 107.702 18.1346C107.702 16.9687 107.354 16.1616 106.659 15.7131C105.987 15.2423 104.989 15.0069 103.666 15.0069H101.144V21.6324ZM116.669 33V11.0719H121.142V18.8409C121.142 20.1189 121.063 21.4754 120.906 22.9104C120.749 24.3454 120.615 25.6458 120.503 26.8117H120.604L122.487 21.9687L127.465 11.0719H132.543V33H128.07V25.231C128.07 23.9306 128.148 22.5853 128.305 21.1952C128.462 19.7826 128.597 18.4822 128.709 17.2938H128.608L126.725 22.0696L121.747 33H116.669ZM141.375 33.4036C140.747 33.4036 140.209 33.3587 139.761 33.2691C139.312 33.2018 138.931 33.1009 138.617 32.9664L139.492 28.6615C139.693 28.7287 139.906 28.796 140.131 28.8633C140.355 28.9081 140.691 28.9305 141.14 28.9305C141.61 28.9305 142.025 28.852 142.384 28.6951C142.765 28.5381 143.057 28.2803 143.258 27.9216L143.561 27.2826L136.128 11.0719H141.375L143.931 17.462L145.747 22.7086H145.882L147.631 17.462L149.951 11.0719H154.929L148.169 28.0225C147.496 29.6816 146.622 30.9933 145.545 31.9574C144.492 32.9215 143.101 33.4036 141.375 33.4036ZM168.167 33.4036C166.799 33.4036 165.498 33.1682 164.265 32.6973C163.055 32.2265 161.978 31.5202 161.037 30.5785C160.095 29.6144 159.355 28.4373 158.817 27.0471C158.279 25.6346 158.01 24.009 158.01 22.1705C158.01 19.749 158.469 17.6862 159.389 15.9822C160.33 14.2557 161.586 12.9441 163.155 12.0472C164.747 11.128 166.519 10.6683 168.469 10.6683C169.859 10.6683 171.115 10.9598 172.236 11.5428C173.357 12.1033 174.288 12.7423 175.028 13.4598L172.303 16.5203C171.788 16.027 171.216 15.6459 170.588 15.3768C169.983 15.0853 169.276 14.9396 168.469 14.9396C167.438 14.9396 166.519 15.2311 165.712 15.814C164.904 16.3746 164.265 17.1817 163.794 18.2355C163.324 19.2893 163.088 20.5449 163.088 22.0023C163.088 23.5046 163.324 24.7938 163.794 25.87C164.265 26.9238 164.916 27.731 165.745 28.2915C166.597 28.852 167.572 29.1323 168.671 29.1323C169.478 29.1323 170.207 28.9529 170.857 28.5942C171.507 28.2355 172.102 27.7646 172.64 27.1817L175.364 30.1749C174.467 31.2287 173.413 32.0359 172.202 32.5964C170.992 33.1345 169.646 33.4036 168.167 33.4036Z" fill="white"/>
<path d="M57.4967 43.643V44.5679H55.3212V51H54.3542V44.5679H52.1892V43.643H57.4967ZM61.3611 48.2989C61.9006 48.5231 62.1703 48.9295 62.1703 49.5181C62.1703 49.9525 62.0232 50.3098 61.7289 50.5901C61.4416 50.8634 61.0282 51 60.4887 51H57.8612V45.745H60.2785C60.804 45.745 61.2104 45.8781 61.4977 46.1444C61.785 46.4036 61.9286 46.7469 61.9286 47.1744C61.9286 47.6788 61.7394 48.0537 61.3611 48.2989ZM60.2365 46.5648H58.7546V47.9416H60.2365C60.769 47.9416 61.0352 47.7069 61.0352 47.2374C61.0352 46.789 60.769 46.5648 60.2365 46.5648ZM60.4362 50.1697C60.7024 50.1697 60.9056 50.1066 61.0458 49.9805C61.1929 49.8544 61.2665 49.6757 61.2665 49.4445C61.2665 49.2273 61.1929 49.0592 61.0458 48.94C60.9056 48.8139 60.7024 48.7509 60.4362 48.7509H58.7546V50.1697H60.4362ZM67.8027 50.3379C67.2632 50.8704 66.6081 51.1366 65.8373 51.1366C65.0666 51.1366 64.4115 50.8704 63.872 50.3379C63.3395 49.8054 63.0732 49.1502 63.0732 48.3725C63.0732 47.5948 63.3395 46.9396 63.872 46.4071C64.4115 45.8746 65.0666 45.6084 65.8373 45.6084C66.6081 45.6084 67.2632 45.8746 67.8027 46.4071C68.3422 46.9396 68.612 47.5948 68.612 48.3725C68.612 49.1502 68.3422 49.8054 67.8027 50.3379ZM65.8373 50.2433C66.3628 50.2433 66.8043 50.0646 67.1616 49.7073C67.5189 49.3499 67.6976 48.905 67.6976 48.3725C67.6976 47.84 67.5189 47.3951 67.1616 47.0377C66.8043 46.6804 66.3628 46.5017 65.8373 46.5017C65.3188 46.5017 64.8809 46.6804 64.5236 47.0377C64.1662 47.3951 63.9876 47.84 63.9876 48.3725C63.9876 48.905 64.1662 49.3499 64.5236 49.7073C64.8809 50.0646 65.3188 50.2433 65.8373 50.2433ZM72.8009 45.6084C73.5366 45.6084 74.1637 45.8781 74.6822 46.4176C75.2007 46.9501 75.4599 47.6018 75.4599 48.3725C75.4599 49.1432 75.2007 49.7984 74.6822 50.3379C74.1637 50.8704 73.5366 51.1366 72.8009 51.1366C71.932 51.1366 71.2699 50.7898 70.8145 50.0961V53.102H69.9001V45.745H70.8145V46.6489C71.2699 45.9552 71.932 45.6084 72.8009 45.6084ZM72.6853 50.2538C73.2108 50.2538 73.6522 50.0751 74.0095 49.7178C74.3669 49.3534 74.5455 48.905 74.5455 48.3725C74.5455 47.84 74.3669 47.3951 74.0095 47.0377C73.6522 46.6734 73.2108 46.4912 72.6853 46.4912C72.1528 46.4912 71.7078 46.6734 71.3505 47.0377C70.9932 47.3951 70.8145 47.84 70.8145 48.3725C70.8145 48.905 70.9932 49.3534 71.3505 49.7178C71.7078 50.0751 72.1528 50.2538 72.6853 50.2538ZM80.5763 45.745H81.312V51H80.4082V47.311L77.4969 51H76.7612V45.745H77.665V49.434L80.5763 45.745ZM86.8238 45.745V46.6278H85.0371V51H84.1227V46.6278H82.3255V45.745H86.8238ZM90.0529 47.6368C90.5784 47.6368 91.0128 47.7944 91.3561 48.1097C91.7065 48.418 91.8816 48.8209 91.8816 49.3184C91.8816 49.8159 91.7065 50.2223 91.3561 50.5376C91.0128 50.8459 90.5784 51 90.0529 51H87.8353V45.745H88.7497V47.6368H90.0529ZM90.0529 50.1487C90.3121 50.1487 90.5293 50.0751 90.7045 49.928C90.8867 49.7738 90.9778 49.5706 90.9778 49.3184C90.9778 49.0662 90.8867 48.863 90.7045 48.7088C90.5293 48.5547 90.3121 48.4776 90.0529 48.4776H88.7497V50.1487H90.0529ZM99.7275 45.745H100.463V51H99.5594V47.311L96.6481 51H95.9124V45.745H96.8162V49.434L99.7275 45.745ZM108.571 45.745H109.548L107.404 51.3258C107.18 51.9214 106.865 52.3733 106.458 52.6816C106.052 52.9969 105.59 53.137 105.071 53.102V52.2507C105.716 52.2997 106.189 51.9494 106.49 51.1997L106.574 51.0105L104.293 45.745H105.26L107.058 49.8649L108.571 45.745ZM114.713 50.1277H115.438V52.4083H114.534V51H110.593V52.4083H109.689V50.1277H110.33C110.667 49.6652 110.835 49.0171 110.835 48.1833V45.745H114.713V50.1277ZM111.371 50.1277H113.809V46.5963H111.739V48.1833C111.739 48.9681 111.616 49.6162 111.371 50.1277ZM120.449 45.745H121.185V51H120.281V47.311L117.37 51H116.634V45.745H117.538V49.434L120.449 45.745ZM126.287 48.2989C126.826 48.5231 127.096 48.9295 127.096 49.5181C127.096 49.9525 126.949 50.3098 126.655 50.5901C126.367 50.8634 125.954 51 125.414 51H122.787V45.745H125.204C125.73 45.745 126.136 45.8781 126.423 46.1444C126.711 46.4036 126.854 46.7469 126.854 47.1744C126.854 47.6788 126.665 48.0537 126.287 48.2989ZM125.162 46.5648H123.68V47.9416H125.162C125.695 47.9416 125.961 47.7069 125.961 47.2374C125.961 46.789 125.695 46.5648 125.162 46.5648ZM125.362 50.1697C125.628 50.1697 125.831 50.1066 125.971 49.9805C126.118 49.8544 126.192 49.6757 126.192 49.4445C126.192 49.2273 126.118 49.0592 125.971 48.94C125.831 48.8139 125.628 48.7509 125.362 48.7509H123.68V50.1697H125.362ZM132.522 45.745V51H131.607V46.6278H129.537V48.7719C129.537 49.6337 129.362 50.2363 129.011 50.5796C128.668 50.9159 128.181 51.0561 127.551 51V50.1382C127.908 50.1872 128.174 50.1102 128.349 49.907C128.531 49.6968 128.623 49.3114 128.623 48.7509V45.745H132.522ZM138.048 45.745V51H137.144V49.1082H136.377L134.906 51H133.792L135.326 49.0556C134.934 48.9576 134.615 48.7614 134.37 48.4671C134.125 48.1728 134.002 47.8295 134.002 47.4371C134.002 46.9536 134.174 46.5508 134.517 46.2285C134.86 45.9061 135.291 45.745 135.81 45.745H138.048ZM135.841 48.2884H137.144V46.5963H135.841C135.582 46.5963 135.361 46.6734 135.179 46.8275C134.997 46.9817 134.906 47.1884 134.906 47.4476C134.906 47.6999 134.997 47.903 135.179 48.0572C135.361 48.2113 135.582 48.2884 135.841 48.2884ZM143.554 45.745V46.6278H141.767V51H140.853V46.6278H139.056V45.745H143.554ZM146.783 47.6368C147.309 47.6368 147.743 47.7944 148.086 48.1097C148.437 48.418 148.612 48.8209 148.612 49.3184C148.612 49.8159 148.437 50.2223 148.086 50.5376C147.743 50.8459 147.309 51 146.783 51H144.566V45.745H145.48V47.6368H146.783ZM146.783 50.1487C147.042 50.1487 147.26 50.0751 147.435 49.928C147.617 49.7738 147.708 49.5706 147.708 49.3184C147.708 49.0662 147.617 48.863 147.435 48.7088C147.26 48.5547 147.042 48.4776 146.783 48.4776H145.48V50.1487H146.783Z" fill="white"/>
<defs>
<clipPath id="clip0_298_1740">
<rect width="40" height="40" fill="white"/>
</clipPath>
</defs>
</svg>
