<svg width="242" height="103" viewBox="0 0 242 103" fill="none" xmlns="http://www.w3.org/2000/svg">
<path d="M0.665283 8.3534V15.7856H8.12396H15.5826V41.7004V67.6152H22.9432H30.3037V49.1326C30.3037 38.9622 30.3626 30.6499 30.4607 30.6499C30.5393 30.6499 33.876 35.5982 37.8802 41.6613L45.1426 52.6531L52.6994 52.6922L60.2366 52.7509L67.2831 42.072C71.1694 36.1849 74.5062 31.1976 74.7025 30.9629C75.0362 30.5717 75.0362 31.2954 75.0558 49.0739V67.6152H82.5145H89.9731V41.7004V15.7856H78.7851H67.5971L60.1973 26.836C54.8977 34.7767 52.7583 37.8278 52.5816 37.6909C52.4638 37.5931 49.0878 32.6253 45.1033 26.66L37.8605 15.8051L26.7314 15.7856H15.5826V8.3534V0.921219H8.12396H0.665283V8.3534Z" fill="#443D81"/>
<path d="M114.214 16.0007C113.566 16.0789 112.173 16.4505 111.113 16.783C104.007 19.0714 100.239 25.4865 99.3946 36.713C99.1395 40.0575 99.1395 43.3433 99.3946 46.6878C100.278 58.4815 104.4 64.9748 112.349 67.0676L114.018 67.4979L136.354 67.5565L158.671 67.6348V60.183V52.7509H138.886H119.101L118.081 52.2423C116.294 51.3622 114.822 49.2695 114.332 46.9225C114.018 45.3774 114.057 37.4562 114.39 36.1849C114.979 33.9553 116.196 32.2341 117.806 31.2758L118.728 30.7477L138.651 30.6499L158.573 30.5521L158.632 23.1591L158.671 15.7856L137.041 15.8051C125.127 15.8247 114.862 15.9029 114.214 16.0007Z" fill="#443D81"/>
<path d="M182.814 23.2178V30.6499H204.798H226.781V49.1326V67.6152H234.24H241.698V41.7004V15.7856H212.256H182.814V23.2178Z" fill="#443D81"/>
<path d="M168.093 49.1326V67.6152H175.355H182.618V49.1326V30.6499H175.355H168.093V49.1326Z" fill="#443D81"/>
<path d="M42.905 74.7735C39.4111 75.6927 36.9184 78.2549 36.094 81.7167C35.7211 83.34 35.7211 86.5672 36.094 88.0536C37.0165 91.6328 39.5485 94.1754 43.062 95.0164C44.7696 95.4271 47.812 95.3489 49.4411 94.8404C52.6012 93.882 54.8585 91.4959 55.7221 88.2492C56.1147 86.7432 56.1147 83.3205 55.7221 81.7949C54.7996 78.2353 52.2676 75.6536 48.8523 74.7539C47.3998 74.3823 44.2985 74.3823 42.905 74.7735ZM47.4979 79.6435C48.6756 79.976 49.7355 80.993 50.3636 82.3817C50.7169 83.164 50.7954 83.7117 50.7954 85.0612C50.7954 86.5476 50.7366 86.8801 50.2066 87.8776C49.2056 89.853 47.2231 90.7331 44.8285 90.3028C42.4928 89.8725 41.2758 88.3079 41.1384 85.5306C41.0207 83.2227 41.4328 81.9318 42.6498 80.7192C43.9649 79.4088 45.5547 79.0568 47.4979 79.6435Z" fill="#443D81"/>
<path d="M69.0496 74.7344C67.5186 75.0865 66.4194 75.6537 65.5558 76.5142C65.1632 76.8858 64.8099 77.1988 64.751 77.1988C64.6921 77.1988 64.6529 76.8663 64.6529 76.4555C64.6529 74.8126 64.7118 74.8518 61.9834 74.8518H59.5496V88.7382V102.625H62.1994H64.8491V97.9306V93.2171L65.7717 93.8429C67.0671 94.7426 68.4018 95.1925 70.1291 95.3294C74.9772 95.6814 78.471 93.1388 79.688 88.347C80.1198 86.6846 80.1198 83.3988 79.688 81.619C78.9618 78.607 76.8615 75.9275 74.5258 75.0473C73.0929 74.5193 70.6591 74.3824 69.0496 74.7344ZM71.4049 79.5653C72.4256 79.8391 73.7799 81.13 74.2118 82.2448C74.4669 82.9098 74.5651 83.6921 74.5651 85.0221C74.5651 86.6063 74.4865 87.0366 74.0547 87.9754C73.4659 89.2076 72.6022 89.9508 71.4246 90.2833C67.8326 91.2612 64.8295 88.9338 64.7706 85.1199C64.7314 81.0713 67.7149 78.5483 71.4049 79.5653Z" fill="#443D81"/>
<path d="M112.349 74.7736C108.954 75.6733 106.48 78.1572 105.577 81.5995C105.224 82.949 105.185 86.2935 105.499 87.7995C105.872 89.6379 106.912 91.5155 108.208 92.7086C110.21 94.5471 112.31 95.2708 115.588 95.2708C118.807 95.2512 120.946 94.4297 122.831 92.4543C124.734 90.479 125.5 88.3275 125.5 84.9244C125.5 83.79 125.382 82.4796 125.206 81.8146C124.263 78.2354 121.751 75.6537 118.336 74.754C116.883 74.3824 113.802 74.3824 112.349 74.7736ZM116.981 79.6436C118.022 79.937 119.121 80.9149 119.67 82.0102C119.847 82.3427 120.083 83.2032 120.22 83.9073C120.416 85.0026 120.416 85.3938 120.122 86.5282C119.494 89.149 117.982 90.3616 115.411 90.3616C112.231 90.3616 110.583 88.5427 110.583 85.0222C110.583 83.0272 111.034 81.7755 112.153 80.6802C113.468 79.4089 115.058 79.0764 116.981 79.6436Z" fill="#443D81"/>
<path d="M138.533 74.7344C137.022 75.0865 135.962 75.6145 135.02 76.5142C134.607 76.8858 134.254 77.1988 134.215 77.1988C134.176 77.1988 134.136 76.9445 134.136 76.6316C134.136 76.3186 134.077 75.7906 134.019 75.4581L133.901 74.8518H131.369H128.837V88.7382V102.625H131.585H134.333V97.9306V93.2171L135.255 93.8429C137.787 95.5836 141.517 95.8574 144.461 94.5275C145.776 93.9212 147.444 92.3761 148.151 91.1048C149.368 88.8555 149.858 84.3376 149.152 81.5994C148.347 78.4896 146.345 75.9275 144.009 75.0473C142.576 74.5193 140.143 74.3824 138.533 74.7344ZM140.908 79.5653C142.007 79.8587 143.401 81.3451 143.774 82.5969C144.206 84.1029 144.127 86.6846 143.597 87.8581C143.048 89.0511 142.694 89.4619 141.713 89.9508C139.946 90.8505 137.473 90.5767 136.04 89.3054C134.784 88.2101 134.254 86.8997 134.254 84.9048C134.254 83.5748 134.352 83.1445 134.804 82.2057C135.393 81.0126 136.452 79.9956 137.493 79.624C138.337 79.3111 139.907 79.2915 140.908 79.5653Z" fill="#443D81"/>
<path d="M158.966 74.7344C155.884 75.5167 153.804 77.5508 152.665 80.8366C152.194 82.1861 152.116 82.6946 152.116 84.8265C152.096 87.5647 152.332 88.7773 153.234 90.6744C154.785 93.9798 158.534 95.7987 162.577 95.212C164.108 94.9773 165.757 94.3319 166.68 93.6278C167.17 93.2366 167.21 93.2366 167.327 93.5691C167.406 93.7647 167.484 94.1558 167.484 94.4492L167.504 94.9968H170.056H172.607V84.9243V74.8517H170.056H167.504V75.6145C167.504 76.5924 167.288 76.7293 166.739 76.1426C166.483 75.8883 165.757 75.4189 165.09 75.1255C164.05 74.6561 163.578 74.5779 161.91 74.5192C160.772 74.4997 159.535 74.5779 158.966 74.7344ZM163.991 79.6435C166.287 80.4454 167.622 83.2032 167.112 86.0391C166.837 87.5255 166.503 88.2296 165.581 89.1685C164.226 90.5767 161.655 90.8896 159.81 89.8726C156.944 88.3079 156.434 82.9098 158.907 80.5628C160.144 79.3893 162.205 79.0177 163.991 79.6435Z" fill="#443D81"/>
<path d="M211.844 78.9981C209.979 81.4038 207.879 84.1028 207.172 85.0221L205.877 86.665L205.818 80.7583L205.779 74.8517H203.129H200.479V84.9243V94.9968H202.894H205.327L209.822 89.2076L214.317 83.4378L214.376 89.2076L214.415 94.9968H217.163H219.911L219.872 84.8656L219.813 74.7539L217.516 74.6952L215.22 74.6366L211.844 78.9981Z" fill="#443D81"/>
<path d="M230.196 74.8517C227.507 75.2233 225.721 76.1034 224.799 77.5508C224.033 78.7634 223.837 79.5262 223.837 81.5016C223.856 84.0637 224.838 85.8435 226.879 86.8997C227.468 87.2126 227.959 87.5255 227.959 87.5842C227.959 87.6624 226.761 89.3445 225.309 91.359L222.679 94.9968H225.858H229.038L231.099 91.7697L233.16 88.5426H234.789H236.399V91.7697V94.9968H239.049H241.698L241.659 84.8656L241.6 74.7539L236.497 74.7344C233.69 74.7148 230.844 74.7735 230.196 74.8517ZM236.399 81.7167V84.0833L233.71 84.005C230.824 83.9268 230.059 83.7117 229.45 82.8315C228.999 82.2057 229.058 80.8757 229.549 80.2498C230.118 79.5457 230.824 79.3893 233.808 79.3697L236.399 79.3501V81.7167Z" fill="#443D81"/>
<path d="M15.5826 84.9243V94.9968H18.2324H20.8822V91.1829V87.3691H22.6291H24.376L26.6136 91.1243L28.8512 94.899L31.9328 94.9577C33.6209 94.9773 35.0145 94.9577 35.0145 94.899C35.0145 94.8404 33.6405 92.4738 31.9328 89.677C30.2448 86.8605 28.8709 84.4549 28.8709 84.3375C28.8709 84.2202 30.1859 82.147 31.7955 79.7413C33.4246 77.3161 34.8182 75.2233 34.8967 75.0864C35.0145 74.9104 34.3864 74.8517 32.0114 74.8517H28.9886L26.5547 78.6656L24.1209 82.4795H22.5114H20.8822V78.6656V74.8517H18.2324H15.5826V84.9243Z" fill="#443D81"/>
<path d="M83.2996 84.9243V94.9968H86.0475H88.7954V87.2713V79.5457L92.5837 79.5848L96.3522 79.6435L96.4111 87.3104L96.4504 94.9968H99.1002H101.75V84.9243V74.8517H92.5248H83.2996V84.9243Z" fill="#443D81"/>
<path d="M176.926 84.9243V94.9969H184.679H192.432V97.8329V100.669H195.18H197.928V95.4859V90.3225L196.613 90.2638L195.278 90.2051L195.219 82.5187L195.18 74.8518H192.53H189.88L189.841 82.5187L189.782 90.2051L186.013 90.2638L182.225 90.3029V82.5773V74.8518H179.575H176.926V84.9243Z" fill="#443D81"/>
</svg>
