<svg width="233" height="64" viewBox="0 0 233 64" fill="none" xmlns="http://www.w3.org/2000/svg">
<path d="M174.779 0H202.488L200.357 4.26667H172.648L174.779 0Z" fill="#171717"/>
<path d="M153.465 59.7333H181.174L179.042 64H151.333L153.465 59.7333Z" fill="#171717"/>
<path d="M199.291 18.1333C198.225 19.2 198.225 20.2667 198.225 21.3333V42.6667C198.225 43.7333 198.225 44.8 199.291 45.8667L201.423 48C202.488 49.0667 203.554 49.0667 204.62 49.0667H232.329V44.8H204.62C203.554 44.8 202.488 43.7333 202.488 42.6667V21.3333C202.488 20.2667 203.554 19.2 204.62 19.2H232.329V14.9333H204.62C203.554 14.9333 202.488 14.9333 201.423 16L199.291 18.1333Z" fill="#171717"/>
<path d="M170.56 14.9333L177.203 29.8667H191.831L189.7 34.1333H179.101L185.744 49.0667H181.078L174.435 34.1333H161.991L164.122 29.8667H172.537L167.792 19.2H160.123L146.837 49.0667H142.19L157.373 14.9333H170.56Z" fill="#171717"/>
<path d="M106.573 43.7333L132.15 13.8667L136.413 16V49.0667H132.15V20.2667L106.573 50.1333L102.31 48V14.9333H106.573V43.7333Z" fill="#171717"/>
<path d="M87.3897 13.8667H85.2583L68.2064 38.4L51.155 13.8667H49.0235L44.7606 16V49.0667H49.0235C48.974 49.0667 49.0235 20.2667 49.0235 20.2667L50.0892 19.2L66.0752 42.6667H70.3381L86.324 19.2L87.3897 20.2667C87.3897 20.2667 87.194 49.0667 87.3897 49.0667H91.652V16L87.3897 13.8667Z" fill="#171717"/>
<path d="M1.06573 18.1333C0 19.2 0 20.2667 0 21.3333V42.6667C0 43.7333 0 44.8 1.06573 45.8667L3.19719 48C4.26291 49.0667 5.32864 49.0667 6.39437 49.0667H34.1033V44.8H6.39437C5.32864 44.8 4.26291 43.7333 4.26291 42.6667V34.1333H29.8404V29.8667H4.26291V21.3333C4.26291 20.2667 5.32864 19.2 6.39437 19.2H34.1033V14.9333H6.39437C5.32864 14.9333 4.26291 14.9333 3.19719 16L1.06573 18.1333Z" fill="#171717"/>
</svg>
