<svg width="240" height="118" viewBox="0 0 240 118" fill="none" xmlns="http://www.w3.org/2000/svg">
<path d="M14.5723 19.9654C14.5723 20.8614 14.4066 21.6377 14.0816 22.2911C13.7534 22.9445 13.331 23.4944 12.8079 23.944C12.2879 24.3936 11.6998 24.7397 11.0434 24.9855C10.3903 25.2314 9.72739 25.3834 9.05151 25.4449V27.1301H5.70135V25.4449H5.66886C4.65504 25.3446 3.79719 25.1246 3.09531 24.7882C2.39019 24.4518 1.81829 24.0184 1.37311 23.4879C0.927943 22.9575 0.6095 22.3332 0.411284 21.6183C0.216319 20.9035 0.118835 20.1175 0.118835 19.2603V12.3706C0.118835 11.494 0.278059 10.7177 0.599752 10.0449C0.918196 9.37214 1.34387 8.79962 1.87028 8.3306C2.39993 7.86159 2.99783 7.50578 3.67046 7.25995C4.33984 7.01412 5.01897 6.89121 5.70135 6.89121V5.82056H9.05151L9.08401 6.89121C9.75664 6.93326 10.4228 7.07558 11.0792 7.31817C11.7323 7.564 12.3204 7.91658 12.8403 8.37589C13.3635 8.83844 13.7827 9.40126 14.1011 10.0741C14.4163 10.7501 14.5755 11.5232 14.5755 12.3997V19.9654H14.5723ZM5.70135 9.58886C4.95398 9.69237 4.36584 9.94467 3.93366 10.3555C3.49824 10.763 3.28053 11.355 3.28053 12.1313V20.2727C3.28053 20.6609 3.35202 21.0038 3.49824 21.2981C3.64122 21.5925 3.82968 21.8447 4.05714 22.0485C4.2846 22.2523 4.54131 22.4108 4.83376 22.524C5.12296 22.6372 5.41215 22.7019 5.70135 22.7246V9.58886ZM11.4723 12.1313C11.4723 11.355 11.2416 10.7533 10.7802 10.3231C10.322 9.89615 9.74689 9.65032 9.05151 9.58886L9.08401 22.7213C9.35046 22.6793 9.62341 22.5984 9.90936 22.4755C10.1953 22.3558 10.4553 22.1909 10.6892 21.9871C10.9232 21.7833 11.1116 21.5375 11.2546 21.2528C11.3976 20.9682 11.4691 20.6415 11.4691 20.2727V12.1313H11.4723Z" fill="#51565B"/>
<path d="M31.0762 21.6798C31.0762 23.5365 30.6537 24.9403 29.8089 25.888C28.964 26.8358 27.635 27.3113 25.8186 27.3113C24.0054 27.3113 22.6829 26.8584 21.8575 25.9495C21.0322 25.0438 20.6227 23.7306 20.6227 22.0162V11.3032C20.6227 10.4687 20.7202 9.70212 20.9152 9.00668C21.1102 8.31448 21.4124 7.71608 21.825 7.21795C22.2377 6.71658 22.7804 6.32843 23.4497 6.05673C24.1224 5.78179 24.9185 5.6427 25.8478 5.6427C26.8389 5.6427 27.6675 5.76885 28.3369 6.02438C29.0063 6.27991 29.5424 6.65189 29.9454 7.14032C30.3483 7.62874 30.6375 8.22391 30.8129 8.91611C30.9884 9.60831 31.0762 10.3976 31.0762 11.2741V21.6798ZM27.726 11.0283C27.726 10.4364 27.596 9.9059 27.3393 9.43688C27.0794 8.96786 26.5887 8.73174 25.8673 8.73174C25.4709 8.73174 25.1524 8.81907 24.9055 8.99374C24.6553 9.16841 24.4668 9.38189 24.3303 9.63743C24.1939 9.89296 24.0996 10.1776 24.0509 10.4946C23.9989 10.8116 23.9729 11.1027 23.9729 11.3679V22.0842C23.9729 22.634 24.1126 23.1289 24.3921 23.5688C24.6715 24.0055 25.1524 24.2255 25.8348 24.2255C26.5172 24.2255 27.0014 23.9958 27.2938 23.5365C27.583 23.0772 27.726 22.5208 27.726 21.8674V11.0283Z" fill="#51565B"/>
<path d="M44.6035 27.1301V17.8242H40.7529V27.1301H37.4028V5.82385H40.7529V14.7319H44.6035V5.82385H47.9537V27.1301H44.6035Z" fill="#51565B"/>
<path d="M55.8627 27.1301V31.1733H53.0422V24.3774L54.3128 24.1025C54.8912 23.4912 55.2843 22.7795 55.4923 21.9741C55.7003 21.1687 55.8237 20.1013 55.8627 18.7751L56.2364 5.82703H65.9132V24.1348H67.278V31.1766H64.4575V27.1333H55.8627V27.1301ZM58.875 18.7525C58.8327 19.9752 58.7515 21.0296 58.6248 21.9159C58.5013 22.8022 58.2641 23.5397 57.9131 24.1316H62.5663V8.91606H59.1219L58.875 18.7525Z" fill="#51565B"/>
<path d="M87.3822 5.6394C88.2726 5.6394 89.0362 5.75908 89.6796 6.00491C90.3197 6.24751 90.8526 6.58714 91.2783 7.02058C91.7007 7.45401 92.0127 7.97155 92.2109 8.56995C92.4058 9.16835 92.5033 9.82497 92.5033 10.5398L89.2441 11.3679C89.2441 10.5948 89.0947 9.96082 88.799 9.4724C88.5 8.98074 88.0256 8.73815 87.3692 8.73815C86.9793 8.73815 86.6608 8.81901 86.4171 8.98398C86.1702 9.14894 85.9817 9.35596 85.8485 9.61149C85.7153 9.86702 85.621 10.1452 85.569 10.4395C85.5203 10.7371 85.4943 11.0153 85.4943 11.2838V22.1132C85.4943 22.317 85.5138 22.5402 85.556 22.786C85.595 23.0318 85.6828 23.2615 85.8192 23.475C85.9525 23.6885 86.1377 23.8696 86.3717 24.0119C86.6056 24.1575 86.9078 24.2286 87.2815 24.2286C88.513 24.2286 89.1369 23.3521 89.1564 21.5957C89.7153 21.6959 90.2742 21.7833 90.8331 21.8544C91.392 21.9256 91.9509 22.0032 92.5098 22.0841C92.4676 23.6949 92.0192 24.9726 91.1581 25.9106C90.3002 26.8519 89.0329 27.3209 87.3595 27.3209C85.582 27.3209 84.2693 26.8778 83.4212 25.9883C82.5731 25.0987 82.1474 23.7984 82.1474 22.0841V11.4552C82.1474 10.6595 82.2351 9.90907 82.4106 9.20716C82.5861 8.50202 82.8818 7.88421 83.2977 7.35374C83.7104 6.82327 84.2498 6.406 84.9257 6.09872C85.5885 5.79143 86.4074 5.6394 87.3822 5.6394Z" fill="#51565B"/>
<path d="M108.448 21.6798C108.448 23.5365 108.023 24.9403 107.178 25.888C106.333 26.8358 105.001 27.3113 103.187 27.3113C101.371 27.3113 100.052 26.8584 99.2264 25.9495C98.4043 25.0438 97.9916 23.7306 97.9916 22.0162V11.3032C97.9916 10.4687 98.0891 9.70212 98.284 9.00668C98.4822 8.31448 98.7844 7.71608 99.1971 7.21795C99.613 6.71658 100.152 6.32843 100.822 6.05673C101.491 5.78179 102.291 5.6427 103.217 5.6427C104.208 5.6427 105.036 5.76885 105.709 6.02438C106.378 6.27991 106.915 6.65189 107.314 7.14032C107.717 7.62874 108.006 8.22391 108.182 8.91611C108.357 9.60831 108.445 10.3976 108.445 11.2741V21.6798H108.448ZM105.098 11.0283C105.098 10.4364 104.968 9.9059 104.708 9.43688C104.451 8.96786 103.961 8.73174 103.236 8.73174C102.843 8.73174 102.525 8.81907 102.274 8.99374C102.024 9.16841 101.832 9.38189 101.699 9.63743C101.563 9.89296 101.468 10.1776 101.416 10.4946C101.364 10.8116 101.342 11.1027 101.342 11.3679V22.0842C101.342 22.634 101.481 23.1289 101.761 23.5688C102.04 24.0055 102.521 24.2255 103.204 24.2255C103.886 24.2255 104.37 23.9958 104.659 23.5365C104.949 23.0772 105.095 22.5208 105.095 21.8674V11.0283H105.098Z" fill="#51565B"/>
<path d="M116.234 27.1301V31.1733H113.41V24.3774L114.684 24.1025C115.262 23.4912 115.656 22.7795 115.863 21.9741C116.068 21.1687 116.195 20.1013 116.234 18.7751L116.604 5.82703H126.284V24.1348H127.649V31.1766H124.825V27.1333H116.234V27.1301ZM119.243 18.7525C119.201 19.9752 119.116 21.0296 118.993 21.9159C118.869 22.8022 118.632 23.5397 118.281 24.1316H122.934V8.91606H119.49L119.243 18.7525Z" fill="#51565B"/>
<path d="M133.079 27.1301V5.82385H142.665V8.91613H136.429V14.7319H141.856V17.8857H136.429V24.0379H142.665V27.1301H133.079Z" fill="#51565B"/>
<path d="M155.757 13.7809L151.227 27.1269H148V5.82382H151.259V19.325H151.383L155.88 5.82382H159.139V27.1301H155.851V13.7809H155.757ZM151.724 0.984863C151.744 1.21129 151.812 1.43771 151.926 1.67383C152.039 1.90996 152.186 2.12668 152.361 2.33046C152.537 2.53424 152.738 2.70567 152.965 2.83829C153.193 2.97091 153.453 3.0356 153.739 3.0356C154.051 3.0356 154.324 2.97091 154.561 2.83829C154.801 2.70567 155 2.53747 155.169 2.33046C155.334 2.12668 155.461 1.90996 155.555 1.67383C155.646 1.43771 155.695 1.21129 155.695 0.984863H158.145C158.103 1.41506 157.989 1.87761 157.801 2.37898C157.615 2.8771 157.339 3.33642 156.978 3.75691C156.615 4.17418 156.173 4.52028 155.643 4.79845C155.117 5.0734 154.48 5.21248 153.736 5.21248C152.93 5.21248 152.247 5.07663 151.688 4.79845C151.13 4.52351 150.675 4.17418 150.32 3.75691C149.969 3.33642 149.71 2.8771 149.547 2.37898C149.378 1.87761 149.287 1.41506 149.268 0.984863H151.724Z" fill="#51565B"/>
<path d="M170.555 5.6394C171.445 5.6394 172.212 5.75908 172.849 6.00491C173.489 6.24751 174.022 6.58714 174.447 7.02058C174.87 7.45401 175.182 7.97155 175.377 8.56995C175.575 9.16835 175.672 9.82497 175.672 10.5398L172.417 11.3679C172.417 10.5948 172.267 9.96082 171.971 9.4724C171.672 8.98074 171.195 8.73815 170.542 8.73815C170.152 8.73815 169.833 8.81901 169.59 8.98398C169.343 9.14894 169.151 9.35596 169.021 9.61149C168.888 9.86702 168.793 10.1452 168.745 10.4395C168.693 10.7371 168.667 11.0153 168.667 11.2838V22.1132C168.667 22.317 168.686 22.5402 168.728 22.786C168.767 23.0318 168.855 23.2615 168.988 23.475C169.122 23.6885 169.307 23.8696 169.541 24.0119C169.778 24.1575 170.08 24.2286 170.447 24.2286C171.679 24.2286 172.303 23.3521 172.326 21.5957C172.884 21.6959 173.44 21.7833 174.002 21.8544C174.561 21.9256 175.12 22.0032 175.676 22.0841C175.633 23.6949 175.185 24.9726 174.327 25.9106C173.469 26.8519 172.202 27.3209 170.529 27.3209C168.751 27.3209 167.435 26.8778 166.59 25.9883C165.742 25.0987 165.317 23.7984 165.317 22.0841V11.4552C165.317 10.6595 165.404 9.90907 165.58 9.20716C165.755 8.50202 166.048 7.88421 166.464 7.35374C166.876 6.82327 167.419 6.406 168.092 6.09872C168.761 5.79143 169.583 5.6394 170.555 5.6394Z" fill="#51565B"/>
<path d="M186.655 8.91613V27.1301H183.305V8.91613H179.832V5.82385H190.129V8.91613H186.655Z" fill="#51565B"/>
<path d="M203.003 15.987C203.955 16.291 204.609 16.8732 204.96 17.7304C205.314 18.5876 205.486 19.5644 205.486 20.6674C205.486 22.8928 205.005 24.5231 204.046 25.5678C203.081 26.6094 201.609 27.1269 199.624 27.1269H195.156V5.82385H199.871C201.775 5.82385 203.156 6.31874 204.017 7.30853C204.875 8.29832 205.304 9.73124 205.304 11.6073C205.304 12.5874 205.132 13.4446 204.794 14.182C204.449 14.9163 203.855 15.4662 203.007 15.8349V15.987H203.003ZM202.107 11.672C202.107 10.6919 201.908 9.98678 201.518 9.55981C201.125 9.13284 200.472 8.91613 199.562 8.91613H198.509V14.4279H199.595C200.462 14.4279 201.096 14.1918 201.502 13.7227C201.902 13.2505 202.107 12.568 202.107 11.672ZM202.289 20.3957C202.289 19.3962 202.107 18.6523 201.733 18.1606C201.359 17.6722 200.706 17.4263 199.777 17.4263H198.506V24.0379H199.838C200.375 24.0379 200.804 23.9408 201.125 23.7468C201.447 23.5527 201.694 23.2939 201.869 22.9672C202.045 22.6405 202.159 22.2524 202.214 21.806C202.266 21.3564 202.289 20.8841 202.289 20.3957Z" fill="#51565B"/>
<path d="M219.384 13.781L214.857 27.1269H211.631V5.82385H214.89V19.3251H215.013L219.51 5.82385H222.77V27.1301H219.481V13.781H219.384Z" fill="#51565B"/>
<path d="M228.32 27.1301L229.528 20.3601C229.671 19.6452 229.902 18.9951 230.211 18.4161C230.519 17.8339 230.955 17.3778 231.514 17.0511C230.519 16.6435 229.84 16.0257 229.467 15.2009C229.096 14.3761 228.908 13.3798 228.908 12.2186C228.908 10.1193 229.421 8.52791 230.445 7.44756C231.465 6.3672 232.869 5.82703 234.646 5.82703H239.579V27.1333H236.232V18.0409H235.364C234.786 18.0409 234.25 18.2641 233.766 18.7169C233.278 19.1665 232.934 19.9622 232.726 21.104L231.702 27.1333H228.32V27.1301ZM234.926 8.91607C233.915 8.91607 233.207 9.21688 232.801 9.81852C232.398 10.4202 232.199 11.2126 232.199 12.1895C232.199 13.231 232.453 13.9491 232.96 14.347C233.463 14.7448 234.113 14.9454 234.896 14.9454H236.229V8.91607H234.926Z" fill="#51565B"/>
<path d="M10.2148 44.8655L4.59979 61.4169H0.596497V34.9967H4.63554V51.7357H4.79151L10.3675 34.9967H14.4066V61.4169H10.3318V44.8655H10.2148Z" fill="#51565B"/>
<path d="M34.7187 61.4169V49.8791H29.9486V61.4169H25.7925V34.9967H29.9486V46.0429H34.7187V34.9967H38.8747V61.4169H34.7187Z" fill="#51565B"/>
<path d="M59.3007 61.4169V49.8791H54.5273V61.4169H50.3745V34.9967H54.5273V46.0429H59.3007V34.9967H63.4535V61.4169H59.3007Z" fill="#51565B"/>
<path d="M87.6909 54.6597C87.6909 56.9628 87.1678 58.703 86.1149 59.8804C85.0686 61.0578 83.4212 61.6432 81.1661 61.6432C78.9175 61.6432 77.283 61.0804 76.2594 59.9548C75.2359 58.8291 74.7257 57.2021 74.7257 55.077V41.7925C74.7257 40.7542 74.8459 39.8065 75.0929 38.9461C75.3333 38.0857 75.7103 37.3449 76.2237 36.7239C76.7338 36.1029 77.4065 35.6241 78.2383 35.2813C79.0669 34.9384 80.058 34.767 81.2083 34.767C82.4366 34.767 83.4667 34.9222 84.2985 35.2425C85.1271 35.5594 85.7933 36.0188 86.2937 36.6269C86.7908 37.235 87.1483 37.9692 87.366 38.8296C87.5837 39.69 87.6942 40.6636 87.6942 41.7505V54.6597H87.6909ZM83.5349 41.4496C83.5349 40.7154 83.3724 40.0588 83.054 39.4765C82.7323 38.8943 82.1246 38.6032 81.2278 38.6032C80.7371 38.6032 80.344 38.7099 80.0353 38.9267C79.7266 39.1401 79.4894 39.4054 79.3236 39.7224C79.1547 40.0394 79.0409 40.3919 78.9792 40.7866C78.9142 41.1779 78.885 41.5402 78.885 41.8701V55.1546C78.885 55.8371 79.0572 56.4517 79.4016 56.9951C79.7493 57.5385 80.3472 57.8102 81.1921 57.8102C82.0402 57.8102 82.6413 57.5256 82.9987 56.9563C83.3562 56.387 83.5382 55.698 83.5382 54.8862V41.4496H83.5349Z" fill="#51565B"/>
<path d="M108.77 47.5987C109.949 47.9804 110.759 48.7017 111.194 49.7626C111.629 50.8268 111.847 52.0398 111.847 53.4048C111.847 56.1639 111.249 58.1888 110.06 59.4794C108.867 60.77 107.041 61.4169 104.578 61.4169H99.0379V34.9967H104.89C107.246 34.9967 108.958 35.6113 110.024 36.8372C111.087 38.0663 111.623 39.8421 111.623 42.171C111.623 43.3872 111.408 44.4482 110.986 45.3604C110.564 46.2725 109.826 46.955 108.776 47.4111V47.5987H108.77ZM107.655 42.2454C107.655 41.0292 107.412 40.1559 106.928 39.6254C106.44 39.0949 105.631 38.8297 104.503 38.8297H103.194V45.6612H104.539C105.618 45.6612 106.404 45.3701 106.908 44.7878C107.405 44.2056 107.655 43.3614 107.655 42.2454ZM107.886 53.0652C107.886 51.8263 107.655 50.9012 107.194 50.2931C106.733 49.685 105.923 49.381 104.77 49.381H103.191V57.5807H104.845C105.511 57.5807 106.044 57.461 106.44 57.2184C106.84 56.979 107.145 56.6556 107.366 56.2512C107.584 55.8469 107.724 55.365 107.789 54.8086C107.854 54.2555 107.886 53.6733 107.886 53.0652Z" fill="#51565B"/>
<path d="M132.738 61.4169L131.698 55.9148H126.775C126.593 56.8238 126.421 57.7424 126.255 58.6643C126.089 59.5893 125.93 60.508 125.774 61.4169H121.543C122.44 56.9887 123.337 52.5864 124.234 48.2068C125.131 43.8272 126.031 39.4249 126.928 34.9967H131.545L136.968 61.4169H132.738ZM129.121 41.1069C128.864 42.9279 128.595 44.7458 128.315 46.5539C128.029 48.3621 127.724 50.2058 127.389 52.0786H131.042L129.31 41.1069H129.121Z" fill="#51565B"/>
<path d="M159.818 34.9966V57.5806H161.55V66.424H158.087V61.4136H146.853V34.9934H151.009V57.5774H155.662V34.9934H159.818V34.9966Z" fill="#51565B"/>
<path d="M181.053 44.8655L175.438 61.4169H171.438V34.9967H175.477V51.7357H175.63L181.209 34.9967H185.248V61.4169H181.17V44.8655H181.053Z" fill="#51565B"/>
<path d="M195.634 61.4169L197.135 53.0199C197.314 52.1336 197.596 51.3282 197.98 50.6069C198.366 49.8856 198.906 49.3195 199.595 48.9152C198.366 48.4106 197.518 47.644 197.057 46.6218C196.595 45.5965 196.365 44.3641 196.365 42.9215C196.365 40.3176 196.998 38.3445 198.266 37.0054C199.536 35.6663 201.275 34.9967 203.481 34.9967H209.596V61.4169H205.444V50.1411H204.368C203.647 50.1411 202.987 50.4193 202.386 50.9788C201.782 51.5352 201.353 52.5217 201.096 53.9417L199.825 61.4201H195.634V61.4169ZM203.829 38.8297C202.571 38.8297 201.691 39.2017 201.193 39.9489C200.693 40.6961 200.443 41.6729 200.443 42.8891C200.443 44.1797 200.758 45.0725 201.385 45.5641C202.012 46.0558 202.815 46.3049 203.79 46.3049H205.444V38.8297H203.829Z" fill="#51565B"/>
<path d="M228.817 55.6464L226.9 50.7492L225.252 46.1172H225.057V61.4137H220.904V34.9935H224.943L227.845 42.5074L229.948 48.2391H230.139L232.294 42.3554L235.179 34.9902H239.176V61.4104H235.023V46.1884H234.87L233.187 50.8947L231.309 55.6399H228.817V55.6464Z" fill="#51565B"/>
<path d="M24.4798 69.4386H0.7005C32.3207 102.748 77.5755 115.402 115.61 117.052C117.384 117.126 119.136 117.175 120.877 117.204C121.401 117.21 121.92 117.217 122.44 117.22C124.026 117.236 125.609 117.243 127.162 117.223C151.841 116.867 179.253 111.524 203.094 98.8767C216.771 91.6182 229.278 81.963 239.41 69.4418C239.41 69.4418 239.41 69.4418 239.407 69.4451C181.726 125.617 66.3844 115.891 24.4798 69.4386Z" fill="#EF2B2D"/>
<path d="M239.407 69.4419C239.377 69.4581 239.351 69.4775 239.325 69.4969C238.422 70.1244 237.58 70.6904 236.788 71.2145C236.329 71.5153 235.897 71.7999 235.472 72.0684C235.117 72.298 234.753 72.5115 234.399 72.7379C233.204 73.5013 232.001 74.2614 230.789 74.9892C230.325 75.2674 229.857 75.5326 229.389 75.8076C228.151 76.5354 226.909 77.2534 225.658 77.9424C225.2 78.1947 224.739 78.4308 224.281 78.6799C223.007 79.3656 221.733 80.0449 220.446 80.6918C219.995 80.9182 219.536 81.1317 219.085 81.3581C217.782 82.0018 216.479 82.6358 215.163 83.2407C214.714 83.4477 214.263 83.6385 213.811 83.8423C212.482 84.4407 211.153 85.0294 209.814 85.5922C209.362 85.7798 208.908 85.9545 208.456 86.1389C207.111 86.6888 205.765 87.2322 204.41 87.7432C203.949 87.9179 203.484 88.0796 203.023 88.2478C201.671 88.746 200.316 89.2409 198.955 89.7034C198.48 89.8684 197.999 90.0139 197.525 90.1692C196.173 90.6156 194.818 91.0619 193.46 91.476C192.963 91.628 192.462 91.7606 191.965 91.9094C190.623 92.304 189.278 92.6987 187.932 93.0609C187.403 93.2032 186.873 93.3262 186.344 93.4653C185.021 93.8081 183.702 94.151 182.376 94.4615C181.807 94.5941 181.235 94.7106 180.667 94.84C179.377 95.1311 178.087 95.4222 176.797 95.6842C176.183 95.8071 175.568 95.9106 174.951 96.0303C173.703 96.2696 172.455 96.5122 171.208 96.7257C170.519 96.8422 169.83 96.936 169.141 97.0459C167.965 97.2335 166.788 97.4276 165.612 97.5894C164.819 97.7026 164.03 97.7834 163.237 97.8837C162.165 98.0196 161.092 98.1651 160.02 98.2816C159.032 98.3883 158.048 98.4659 157.063 98.5565C156.189 98.6374 155.311 98.7312 154.437 98.7991C152.575 98.9447 150.72 99.0611 148.868 99.1517C148.865 99.1517 148.861 99.1517 148.861 99.1517C147.776 99.2034 146.694 99.2455 145.615 99.2778C145.596 99.2778 145.579 99.281 145.56 99.281C144.494 99.3134 143.435 99.336 142.372 99.349C142.337 99.349 142.301 99.349 142.265 99.3522C141.225 99.3651 140.185 99.3684 139.149 99.3652C139.087 99.3652 139.029 99.3619 138.97 99.3619C137.956 99.3554 136.942 99.3425 135.932 99.3199C135.857 99.3199 135.782 99.3166 135.708 99.3134C134.713 99.2908 133.722 99.2616 132.731 99.2228C132.64 99.2196 132.549 99.2164 132.455 99.2099C131.483 99.1711 130.515 99.1226 129.55 99.0676C129.44 99.0611 129.332 99.0546 129.222 99.0449C128.276 98.9899 127.334 98.9285 126.395 98.8573C126.258 98.8476 126.122 98.8347 125.982 98.825C125.069 98.7538 124.159 98.6794 123.253 98.5953C123.1 98.5824 122.947 98.563 122.794 98.55C121.907 98.4659 121.02 98.3754 120.14 98.2783C119.964 98.2589 119.789 98.2363 119.613 98.2169C118.755 98.1198 117.898 98.0196 117.043 97.9063C116.855 97.8837 116.666 97.8578 116.478 97.832C115.642 97.722 114.811 97.6088 113.982 97.4859C113.771 97.4535 113.563 97.4212 113.352 97.3888C112.549 97.2659 111.746 97.143 110.947 97.0104C110.716 96.9715 110.489 96.9295 110.258 96.8907C109.482 96.7581 108.708 96.6254 107.938 96.4799C107.691 96.4346 107.451 96.3861 107.204 96.3408C106.453 96.1985 105.706 96.0529 104.962 95.9009C104.695 95.8459 104.432 95.7877 104.165 95.7327C103.447 95.5839 102.732 95.4319 102.021 95.2702C101.735 95.2055 101.452 95.1375 101.166 95.0728C100.477 94.9144 99.7918 94.7558 99.1094 94.5909C98.8104 94.5165 98.5147 94.4421 98.2158 94.3645C97.5529 94.1995 96.8933 94.0345 96.2369 93.8599C95.9152 93.7758 95.6 93.6852 95.2816 93.5979C94.6544 93.4297 94.024 93.2582 93.4034 93.0803C93.0687 92.9865 92.7405 92.8863 92.4058 92.786C91.8047 92.6113 91.197 92.4334 90.6024 92.249C90.2644 92.1455 89.9297 92.0356 89.5918 91.9288C89.0069 91.7444 88.4253 91.5601 87.8469 91.3692C87.4959 91.2528 87.1482 91.1331 86.8005 91.0134C86.2449 90.8226 85.686 90.6382 85.1368 90.4409C84.7729 90.3148 84.4155 90.1789 84.0515 90.0463C83.5219 89.8522 82.9922 89.6646 82.4691 89.464C82.0921 89.3217 81.7249 89.1762 81.3513 89.0306C80.8476 88.8333 80.3439 88.6425 79.8468 88.4419C79.4633 88.2867 79.0897 88.1282 78.7095 87.9697C78.2286 87.7724 77.7476 87.575 77.2732 87.3713C76.8833 87.2031 76.4999 87.0284 76.1132 86.8602C75.6583 86.6597 75.1968 86.4623 74.7484 86.2553C74.3552 86.0742 73.9686 85.8898 73.5786 85.7087C73.1432 85.5017 72.7045 85.3044 72.2756 85.0941C71.8759 84.9 71.4827 84.6995 71.0863 84.5022C70.6769 84.2984 70.261 84.0979 69.858 83.8876C69.4584 83.6806 69.0652 83.4703 68.6687 83.2601C68.2756 83.0531 67.8791 82.8461 67.4892 82.6358C67.0895 82.4191 66.7028 82.1959 66.3097 81.9727C65.936 81.7625 65.5558 81.5522 65.1821 81.3387C64.7824 81.1058 64.3925 80.8697 63.9993 80.6336C63.6451 80.4233 63.2844 80.2131 62.9335 79.9964C62.5403 79.757 62.1601 79.508 61.7735 79.2654C61.429 79.0486 61.0846 78.8352 60.7466 78.6152C60.347 78.3564 59.9603 78.0912 59.5671 77.826C59.2519 77.6125 58.9335 77.4055 58.6215 77.192C58.2186 76.9138 57.8286 76.6292 57.4322 76.3478C57.143 76.1407 56.8441 75.9337 56.5581 75.7235C56.1682 75.4356 55.7848 75.1413 55.4013 74.8501C55.1219 74.6367 54.8359 74.4264 54.5597 74.2129C54.1665 73.9056 53.7831 73.5919 53.3964 73.2781C53.143 73.0711 52.8798 72.8673 52.6296 72.6603C52.2201 72.3207 51.827 71.9778 51.4273 71.6317C51.2096 71.4441 50.9854 71.2597 50.7676 71.0689C50.16 70.5319 49.5621 69.9853 48.9772 69.4354H24.4863C66.3844 115.891 181.726 125.617 239.407 69.4419Z" fill="#00A0DC"/>
<path d="M146.616 91.2107C146.168 91.214 145.716 91.214 145.271 91.214C145.069 91.214 144.874 91.2107 144.673 91.2107C144.02 91.2075 143.37 91.2043 142.723 91.1913C142.369 91.1881 142.015 91.1784 141.661 91.1719C141.021 91.159 140.387 91.1428 139.753 91.1234C139.396 91.1137 139.042 91.1008 138.687 91.0846C138.064 91.0619 137.443 91.0361 136.826 91.0037C136.468 90.9843 136.111 90.9649 135.753 90.9455C135.146 90.9132 134.541 90.8776 133.94 90.8355C133.579 90.8129 133.222 90.787 132.861 90.7611C132.273 90.7158 131.685 90.6738 131.1 90.622C130.733 90.5897 130.369 90.5573 130.005 90.525C129.433 90.47 128.864 90.4183 128.299 90.36C127.932 90.3212 127.568 90.2824 127.204 90.2436C126.652 90.1821 126.099 90.1207 125.55 90.0527C125.176 90.0075 124.806 89.9589 124.435 89.9104C123.903 89.8425 123.373 89.7713 122.847 89.7002C122.47 89.6452 122.096 89.5902 121.719 89.5352C121.206 89.4608 120.692 89.3799 120.182 89.3023C119.805 89.2409 119.428 89.1762 119.051 89.1115C118.554 89.0274 118.06 88.9465 117.569 88.856C117.186 88.788 116.809 88.7136 116.429 88.6425C115.954 88.5519 115.477 88.4613 115.006 88.3675C114.619 88.2899 114.239 88.209 113.855 88.1314C113.4 88.0344 112.942 87.9406 112.491 87.8403C112.101 87.753 111.714 87.6624 111.327 87.5718C110.895 87.4715 110.46 87.3713 110.031 87.2678C109.634 87.1707 109.244 87.0737 108.851 86.9734C108.439 86.8667 108.026 86.7632 107.62 86.6564C107.22 86.5497 106.83 86.4397 106.434 86.3297C106.04 86.223 105.647 86.113 105.257 86.003C104.858 85.8866 104.468 85.7669 104.075 85.6505C103.698 85.5373 103.321 85.424 102.947 85.3076C102.551 85.1847 102.161 85.0553 101.767 84.9259C101.41 84.8095 101.046 84.693 100.692 84.5733C100.295 84.4407 99.9055 84.3016 99.5156 84.1625C99.1744 84.0429 98.83 83.9232 98.4921 83.8003C98.0989 83.658 97.7122 83.5092 97.3223 83.3604C96.9973 83.2375 96.6691 83.1178 96.3474 82.9916C95.9575 82.8364 95.5741 82.6811 95.1874 82.5258C94.8754 82.3997 94.5635 82.2768 94.258 82.1474C93.8746 81.9857 93.4944 81.8207 93.1175 81.6557C92.8218 81.5264 92.5229 81.4002 92.2304 81.2676C91.847 81.0961 91.47 80.9182 91.0931 80.7403C90.8169 80.611 90.5342 80.4816 90.2613 80.3522C89.8811 80.1711 89.5074 79.9802 89.1337 79.7958C88.8737 79.6632 88.6073 79.5371 88.3506 79.4045C87.9737 79.2104 87.6065 79.0098 87.236 78.8125C86.9923 78.6799 86.7421 78.5505 86.5017 78.4179C86.1345 78.2141 85.7738 78.0071 85.4131 77.8001C85.1791 77.6675 84.9419 77.5349 84.7112 77.399C84.3505 77.1855 83.9996 76.9688 83.6454 76.7521C83.4277 76.6195 83.2035 76.4869 82.989 76.351C82.6381 76.1278 82.2936 75.9014 81.9492 75.6782C81.7412 75.5423 81.53 75.4097 81.3286 75.2706C80.9809 75.0378 80.6462 74.7984 80.3083 74.559C80.1198 74.4264 79.9248 74.297 79.7396 74.1612C79.4017 73.9186 79.0735 73.6695 78.742 73.4205C78.5666 73.2878 78.3846 73.1584 78.2091 73.0226C77.8712 72.7606 77.543 72.4921 77.2148 72.2269C77.0621 72.104 76.9028 71.9811 76.7501 71.8581C76.3894 71.5573 76.0385 71.2533 75.6908 70.9492C75.5803 70.8522 75.4666 70.7616 75.3594 70.6646C74.9077 70.2602 74.4658 69.8527 74.0368 69.4419H53.2503H48.9578C49.5427 69.9918 50.1373 70.5384 50.7482 71.0754C50.9627 71.2662 51.1869 71.4506 51.4078 71.6382C51.8075 71.9843 52.2007 72.3304 52.6101 72.6668C52.8603 72.8738 53.1235 73.0776 53.377 73.2846C53.7637 73.5951 54.1439 73.9121 54.5403 74.2194C54.8165 74.4361 55.1024 74.6431 55.3819 74.8566C55.7653 75.1477 56.1455 75.4421 56.5387 75.73C56.8246 75.9402 57.1236 76.144 57.4128 76.3542C57.8092 76.6356 58.1991 76.9203 58.6021 77.1985C58.914 77.4119 59.2325 77.619 59.5477 77.8324C59.9408 78.0944 60.3275 78.3629 60.7272 78.6217C61.0651 78.8416 61.4128 79.0551 61.754 79.2718C62.1407 79.5177 62.5241 79.7635 62.9141 80.0029C63.265 80.2196 63.6257 80.4266 63.9799 80.6401C64.3731 80.8762 64.763 81.1123 65.1627 81.3452C65.5331 81.5587 65.9133 81.7657 66.2902 81.9792C66.6834 82.2024 67.0733 82.4256 67.4698 82.6423C67.8597 82.8525 68.2561 83.0596 68.6493 83.2666C69.0457 83.4768 69.4389 83.6871 69.8386 83.8941C70.2448 84.1043 70.6574 84.3049 71.0669 84.5087C71.4633 84.706 71.8565 84.9065 72.2562 85.1006C72.6851 85.3108 73.1238 85.5114 73.5592 85.7152C73.9491 85.8963 74.3358 86.0839 74.729 86.2618C75.1806 86.4688 75.6388 86.6661 76.0937 86.8667C76.4804 87.0349 76.8639 87.2095 77.2538 87.3777C77.7282 87.5783 78.2091 87.7756 78.69 87.9761C79.0702 88.1346 79.4471 88.2931 79.8273 88.4484C80.3245 88.6489 80.8314 88.843 81.3318 89.0371C81.7023 89.1794 82.0727 89.3282 82.4496 89.4705C82.9728 89.6678 83.5024 89.8587 84.0321 90.0527C84.3928 90.1821 84.7535 90.318 85.1174 90.4474C85.6666 90.6414 86.2255 90.829 86.7811 91.0199C87.1288 91.1363 87.4765 91.2593 87.8274 91.3757C88.4058 91.5665 88.9907 91.7509 89.5724 91.9353C89.9103 92.042 90.2418 92.152 90.5829 92.2555C91.1808 92.4399 91.7852 92.6178 92.3864 92.7925C92.7178 92.8895 93.0493 92.993 93.3839 93.0868C94.0078 93.2679 94.635 93.4361 95.2621 93.6043C95.5806 93.6917 95.8958 93.7822 96.2174 93.8663C96.8738 94.041 97.5335 94.206 98.1964 94.3709C98.4953 94.4453 98.791 94.523 99.0899 94.5974C99.7723 94.7623 100.461 94.9241 101.147 95.0793C101.433 95.144 101.715 95.2119 102.001 95.2766C102.713 95.4351 103.431 95.5871 104.146 95.7392C104.413 95.7942 104.676 95.8524 104.942 95.9074C105.686 96.0594 106.434 96.2049 107.184 96.3473C107.428 96.3926 107.672 96.4443 107.919 96.4864C108.689 96.6287 109.462 96.7645 110.239 96.8972C110.469 96.936 110.697 96.978 110.928 97.0168C111.727 97.1495 112.526 97.2724 113.332 97.3953C113.543 97.4276 113.751 97.46 113.963 97.4923C114.791 97.6152 115.626 97.7284 116.458 97.8384C116.647 97.8643 116.835 97.8902 117.024 97.9128C117.878 98.026 118.733 98.1231 119.594 98.2233C119.769 98.2428 119.945 98.2654 120.12 98.2848C121.001 98.3818 121.888 98.4724 122.775 98.5565C122.928 98.5694 123.08 98.5888 123.233 98.6018C124.14 98.6859 125.05 98.7603 125.963 98.8314C126.099 98.8412 126.236 98.8541 126.375 98.8638C127.314 98.9349 128.257 98.9964 129.202 99.0514C129.313 99.0579 129.42 99.0676 129.531 99.074C130.496 99.129 131.467 99.1743 132.436 99.2164C132.527 99.2196 132.618 99.2228 132.712 99.2293C133.703 99.2681 134.694 99.3005 135.688 99.3199C135.763 99.3231 135.838 99.3263 135.912 99.3263C136.923 99.349 137.937 99.3619 138.951 99.3684C139.009 99.3684 139.068 99.3716 139.129 99.3716C140.166 99.3749 141.206 99.3716 142.246 99.3587C142.281 99.3555 142.317 99.3555 142.353 99.3555C143.412 99.3425 144.475 99.3199 145.541 99.2875C145.56 99.2875 145.576 99.2843 145.596 99.2843C146.678 99.2519 147.76 99.2099 148.842 99.1581C148.845 99.1581 148.845 99.1581 148.848 99.1581C150.701 99.0676 152.556 98.9511 154.418 98.8056C155.292 98.7376 156.169 98.6438 157.043 98.563C158.028 98.4724 159.013 98.3948 160 98.288C161.073 98.1716 162.145 98.026 163.217 97.8902C164.01 97.7899 164.8 97.7058 165.593 97.5958C166.769 97.4341 167.945 97.24 169.122 97.0524C169.81 96.9424 170.499 96.8486 171.188 96.7322C172.436 96.5219 173.684 96.2761 174.932 96.0368C175.546 95.9203 176.16 95.8136 176.777 95.6906C178.067 95.4286 179.357 95.1375 180.647 94.8464C181.216 94.7203 181.788 94.6038 182.357 94.468C183.682 94.1574 185.002 93.8146 186.324 93.4717C186.854 93.3326 187.383 93.2097 187.913 93.0674C189.262 92.7051 190.604 92.3105 191.946 91.9159C192.443 91.7671 192.943 91.6345 193.44 91.4824C194.799 91.0684 196.154 90.6253 197.505 90.1757C197.983 90.0172 198.461 89.8716 198.935 89.7099C200.297 89.2473 201.648 88.7524 203.003 88.2543C203.465 88.0861 203.93 87.9244 204.391 87.7497C205.746 87.2354 207.091 86.6952 208.436 86.1454C208.888 85.961 209.343 85.7863 209.795 85.5987C211.133 85.0391 212.466 84.4472 213.792 83.8488C214.243 83.6482 214.695 83.4542 215.143 83.2472C216.459 82.6423 217.762 82.0083 219.065 81.3646C219.52 81.1414 219.975 80.928 220.427 80.6983C221.714 80.0481 222.987 79.3721 224.261 78.6864C224.719 78.4373 225.181 78.2012 225.639 77.9489C226.89 77.2599 228.131 76.5386 229.369 75.8141C229.834 75.5391 230.305 75.2739 230.77 74.9957C231.985 74.2679 233.184 73.511 234.38 72.7444C235.176 72.2366 235.982 71.7449 236.771 71.2209C237.623 70.6581 238.464 70.0856 239.309 69.5034C239.319 69.4969 239.332 69.4872 239.342 69.4807C239.358 69.471 239.374 69.4613 239.391 69.4484C234.747 71.5379 230.136 73.4657 225.564 75.2318C197.021 86.2553 170.061 91.0361 146.616 91.2107Z" fill="white"/>
<path d="M239.797 69.1702C239.764 69.1249 239.719 69.0829 239.667 69.0473C239.615 69.0149 239.559 68.9988 239.524 68.9891C239.455 68.9729 239.309 68.9729 239.212 69.0182C234.633 71.0786 229.99 73.0194 225.411 74.7887C198.873 85.0391 171.627 90.5541 146.613 90.7417C146.168 90.7482 145.713 90.7482 145.271 90.7482C114.554 90.7482 88.7178 82.859 74.3878 69.1055C74.3 69.0214 74.1766 68.9729 74.0563 68.9729H0.700507C0.51204 68.9729 0.343068 69.0796 0.265082 69.2478C0.187096 69.416 0.219591 69.6133 0.349568 69.7524C15.0662 85.2526 33.6465 97.2983 55.5768 105.546C73.9751 112.472 94.726 116.609 115.591 117.511C118.483 117.637 121.423 117.702 124.331 117.702C125.274 117.702 126.229 117.696 127.165 117.683C140.205 117.495 153.121 115.955 165.55 113.106C179.231 109.971 191.936 105.32 203.319 99.2778C217.899 91.5407 230.165 81.6008 239.771 69.733C239.774 69.7298 239.777 69.7266 239.777 69.7233C239.78 69.7201 239.784 69.7169 239.784 69.7136C239.819 69.6619 239.845 69.6133 239.862 69.5422H239.865C239.884 69.4775 239.884 69.4063 239.868 69.3319C239.855 69.2737 239.829 69.2187 239.797 69.1702ZM119.207 89.2797C119.522 89.3347 119.841 89.3864 120.159 89.4382C120.669 89.5191 121.183 89.5967 121.696 89.6743L121.738 89.6808C122.099 89.7358 122.46 89.7875 122.824 89.8393C123.35 89.9137 123.883 89.9816 124.413 90.0495C124.783 90.098 125.157 90.1466 125.531 90.1918C126.08 90.2598 126.632 90.3212 127.21 90.3827C127.568 90.4215 127.922 90.4603 128.283 90.4991C128.848 90.5574 129.417 90.6124 129.989 90.6641L130.245 90.6867C130.525 90.7126 130.804 90.7385 131.084 90.7611C131.665 90.8097 132.257 90.8549 132.845 90.9002C133.206 90.9261 133.563 90.952 133.924 90.9779C134.525 91.0199 135.133 91.0555 135.74 91.0878C136.098 91.1072 136.455 91.1266 136.813 91.1461C137.43 91.1752 138.054 91.201 138.678 91.2269L138.941 91.2366C139.207 91.2463 139.477 91.256 139.744 91.2657C140.377 91.2851 141.014 91.3013 141.661 91.3143C142.012 91.3207 142.363 91.3272 142.717 91.3337C143.367 91.3434 144.017 91.3498 144.67 91.3498L145.154 91.3531C145.638 91.3563 146.122 91.3563 146.613 91.3531C171.698 91.1655 199.026 85.6343 225.632 75.3548C230.039 73.6534 234.497 71.7935 238.903 69.8204C229.411 81.4099 217.343 91.1396 203.02 98.7409C181.489 110.162 154.548 116.673 127.155 117.071C125.829 117.088 124.494 117.1 123.132 117.078L122.437 117.068C121.917 117.065 121.397 117.062 120.874 117.052C118.876 117.016 117.205 116.968 115.613 116.9C88.539 115.726 37.705 108.008 1.03845 69.5778H73.9914C74.3975 69.9692 74.8297 70.367 75.2749 70.7649C75.3301 70.8134 75.3886 70.8651 75.4471 70.9137C75.5023 70.9589 75.5543 71.0042 75.6063 71.0495C75.9573 71.3568 76.3049 71.6608 76.6689 71.9617C76.7599 72.0361 76.8541 72.1105 76.9451 72.1849L77.2765 72.4501C77.5592 72.6797 77.8387 72.9062 78.1311 73.1293C78.2383 73.2134 78.3488 73.2943 78.4593 73.3752L78.8298 73.6534C79.1059 73.8604 79.3789 74.0674 79.6616 74.2712C79.7786 74.3553 79.9021 74.4394 80.0223 74.5235L80.3667 74.7628C80.6592 74.9698 80.9549 75.1769 81.2538 75.3806C81.3806 75.468 81.5138 75.5521 81.6438 75.6362L81.9817 75.8561C82.2904 76.0599 82.5991 76.2637 82.9175 76.461C83.0605 76.5516 83.21 76.6421 83.3562 76.7295L83.7104 76.9462C84.0191 77.137 84.3278 77.3246 84.643 77.5122C84.7925 77.5996 84.9452 77.6869 85.0979 77.7742L85.5626 78.0395C85.8518 78.2044 86.141 78.3694 86.4334 78.5344C86.5959 78.6249 86.7649 78.7123 86.9306 78.8028L87.4342 79.0713C87.7169 79.2233 87.9964 79.3754 88.2856 79.5209C88.4481 79.605 88.6138 79.6859 88.7795 79.77L89.3124 80.0352C89.6049 80.1808 89.8973 80.3296 90.1963 80.4719C90.3782 80.5592 90.5667 80.6466 90.7519 80.7339L91.2198 80.9506C91.535 81.0994 91.8502 81.245 92.1687 81.3905C92.3474 81.4681 92.5261 81.5458 92.7048 81.6266L93.3579 81.9113C93.6374 82.0342 93.9169 82.1539 94.1996 82.2736C94.401 82.3577 94.609 82.4418 94.8137 82.5259L95.4083 82.7652C95.7008 82.8849 95.9932 83.0013 96.2922 83.1178C96.5099 83.2019 96.7276 83.286 96.9486 83.3669L97.4327 83.5512C97.7674 83.6774 98.0989 83.8035 98.4368 83.9264C98.6805 84.0138 98.9275 84.1011 99.1744 84.1884L99.5644 84.3243C99.9218 84.4504 100.279 84.5766 100.64 84.6995C100.89 84.7836 101.144 84.8677 101.4 84.9486L101.914 85.1168C102.239 85.2235 102.567 85.3303 102.898 85.4338C103.168 85.5179 103.438 85.5987 103.711 85.6828L104.331 85.8704C104.624 85.9578 104.916 86.0483 105.212 86.1324C105.521 86.2198 105.832 86.3071 106.144 86.3944L106.424 86.4721C106.807 86.5788 107.188 86.6855 107.577 86.7891C107.941 86.8861 108.309 86.9767 108.676 87.0705L109.053 87.1675C109.365 87.2484 109.677 87.326 109.995 87.4036C110.417 87.5071 110.84 87.6042 111.292 87.7077L111.519 87.7594C111.831 87.8338 112.143 87.905 112.458 87.9762C112.9 88.0732 113.348 88.167 113.823 88.2673L113.979 88.2996C114.31 88.3675 114.638 88.4387 114.973 88.5066C115.444 88.6004 115.919 88.691 116.396 88.7816L116.637 88.8268C116.936 88.8851 117.235 88.9401 117.537 88.9951C118.002 89.0792 118.47 89.1568 118.937 89.2376L119.207 89.2797Z" fill="#CACAC7"/>
</svg>
