<svg width="20" height="20" viewBox="0 0 20 20" fill="none" xmlns="http://www.w3.org/2000/svg">
<path d="M10.9003 6.38098L11.1271 7.27887L11.9224 6.80433L15.0797 4.92034L13.1957 8.07761L12.7211 8.87287L13.619 9.09966L17.1837 10L13.619 10.9003L12.7211 11.1271L13.1957 11.9224L15.0797 15.0797L11.9224 13.1957L11.1271 12.7211L10.9003 13.619L10 17.1837L9.09966 13.619L8.87287 12.7211L8.07761 13.1957L4.92034 15.0797L6.80433 11.9224L7.27887 11.1271L6.38098 10.9003L2.81628 10L6.38098 9.09966L7.27887 8.87287L6.80433 8.07761L4.92034 4.92034L8.07761 6.80433L8.87287 7.27887L9.09966 6.38098L10 2.81628L10.9003 6.38098Z" stroke="#E6E6E6" stroke-width="1.37931"/>
</svg>
