<svg width="24" height="24" viewBox="0 0 24 24" fill="none" xmlns="http://www.w3.org/2000/svg">
<path opacity="0.35" d="M3 20.4V3.6C3 1.6116 4.63678 0 6.65625 0H15.1875L22.5 7.2V20.4C22.5 22.3884 20.8632 24 18.8438 24H6.65625C4.63678 24 3 22.3884 3 20.4Z" fill="#4F5B87"/>
<path d="M16.2003 13.2003H9.00029C8.33669 13.2003 7.80029 12.6627 7.80029 12.0003C7.80029 11.3379 8.33669 10.8003 9.00029 10.8003H16.2003C16.8639 10.8003 17.4003 11.3379 17.4003 12.0003C17.4003 12.6627 16.8639 13.2003 16.2003 13.2003Z" fill="#4F5B87"/>
<path d="M13.8003 18.0006H9.00029C8.33669 18.0006 7.80029 17.463 7.80029 16.8006C7.80029 16.1382 8.33669 15.6006 9.00029 15.6006H13.8003C14.4639 15.6006 15.0003 16.1382 15.0003 16.8006C15.0003 17.463 14.4639 18.0006 13.8003 18.0006Z" fill="#4F5B87"/>
<path d="M15 5V0L22.5 7.5H17.5C16.1187 7.5 15 6.38125 15 5Z" fill="#4F5B87"/>
</svg>
