<svg xmlns="http://www.w3.org/2000/svg" viewBox="0 0 48 33" style="height: 100%;">
  <g id="container_logo_black" fill="none" fill-rule="evenodd">
    <g id="Group-2" fill-rule="nonzero" transform="translate(31)">
      <path id="Rectangle-Copy-2" fill="#6C6A6A" d="M5 0h10a2 2 0 0 1 2 2v29a2 2 0 0 1-2 2H0L5 0z" opacity=".9"/>
      <path id="Combined-Shape" fill="#000" d="M17 2.8v.63l-.55.3-.32.15-.25-.25-.88-.86-.86.86-.25.25-.32-.16-.79-.41-.44.92-.16.32-.35-.03-.35-.03c.16.35.26.67.35.92A7.1 7.1 0 0 1 17 4.94v.51a6.44 6.44 0 0 0-2.04-.32c-1.55 0-2.78.5-3.45 1.05 0 0-.19-1.24-.88-2.33l1.23.13.67-1.4 1.26.63L15 2l1.2 1.21.81-.41zm0 3.51v.63a5.68 5.68 0 0 0-2.04-.38c-1.52 0-2.69.51-2.9 1.12l2.9 1.18L17 8.04v.67l-1.81.63v4.24l1.81-.97v.73l-2.04 1.1-2.46-1.34-.92.55-.89.54-.22.13c.5.12.89.38 1.23.73l.04.03c.06.07.15.16.22.26l.06.06c.06.1.13.2.19.26 0 .03.03.03.03.06.07.13.16.22.22.35.64 1.12 1.68 1.79 2.57 1.79.67 0 1.39-.36 1.97-.99v.79c-.59.49-1.17.69-1.69.74-.1 0-.22.03-.35.03-.12 0-.22 0-.34-.03-.1 0-.23-.03-.32-.06-.03.16-.1.47.06.8.13.28.38.5.76.63l.13.07v.12c0 .03.03.96 1.01 1.18.16-.16.32-.32.41-.44-.19-.48-.1-.96.2-1.18 0 .04-.06.52.13.98v.76a.86.86 0 0 1-.1-.15c-.51.54-1.46 1.5-1.52 1.53l-.07.07-3.07-.07c0 .32-.06.58-.1.77l-.02.1 3.64.66c.26-.16.8-.54 1.24-.88v.49l-1.02.75-.07.03-4.02-.74h-.1c-.09 0-.24 0-.37-.03a.38.38 0 0 1-.38.32h-.06c-.1-.03-.2-.06-.26-.16s-.1-.19-.06-.29v-.1c-.41-.28-.8-.95-.63-1.65l.03-.06.06-.04s.06-.06.2-.12l-.3-.04c-.09-.03-.18-.12-.15-.22s.12-.2.22-.16l.7.1.06-2.46 1.04-1.12.64 1.38-.7 2.36.6.1c.1.02.2.12.16.22-.03.1-.1.16-.19.16h-.03l-.5-.1.02.03c.07.1.16.2.26.22l3.07.07c.12-.13.44-.45.79-.77a1.7 1.7 0 0 1-1.08-1.37 1.7 1.7 0 0 1-.88-.8 1.64 1.64 0 0 1-.07-1.08 3.57 3.57 0 0 1-1.26-.86H8.03v.03c.2.54.38 1.12.38 1.69v5.97h8.6v.41H8.37v4.98c0 1.12.44 2.02 1.2 2.6H8.5a3.95 3.95 0 0 1-.85-2.57V19.07c0-.86-.35-1.66-.73-2.43h5.1c-.13-.15-.22-.31-.35-.5-.1-.17-.19-.3-.28-.42-.41-.51-.92-.86-1.59-.86a1.5 1.5 0 0 0-1.51 1.27c-.45-.31-.29-1.08.47-1.62l.67-.39 1.96-1.14.76-.45-.76-4.37-.03-.26c0-1.02 1.7-1.94 3.64-1.94.72 0 1.42.13 2 .35zm0 22.64v.38c-.3.04-.54.17-.68.17l-1.48-.16c-.22-.03-.41-.25-.48-.35l-.03-.03v-.13c-.06-1.21-.98-1.75-1.33-1.75 0 0 .03-.23-.06-.32l-.32.41-1.07-.54.76.9-.64.73c-.1.1-.06.19-.03.25l.29.26.34-.22c.04 0 .07-.04.1-.04.1 0 .25.04.38.04.16 0 .28-.04.28-.16-.03.44-.47 1.24-.19 1.85l.2.48-1.3-.2-.6 1.06c-.2.35-.23.73-.04.92l.22.29s.32-.35.38-.58l-.1-.12c-.09-.1-.09-.2-.02-.29l.38-.64 1.55.38.1-.12c.09-.2.25-.23.4-.23a6.13 6.13 0 0 0 1.46.16c.5 0 1.04-.1 1.3-.41.07.1.14.19.22.27-.03.3-.12.58-.27.82l-.36-.42c-.29.1-.51.1-.89.1s-.82-.04-1.3-.13h-.12c-.07 0-.07 0-.07.03l-.1.13-.15.25-.29-.06-1.26-.29-.16.29.03.03.16.16-.06.22c-.08.25-.3.53-.42.68h-.7l-.18-.23c-.22-.26-.29-.64-.16-1.05l-.35.16-.16-.36-.12-.25a1.2 1.2 0 0 1 .41-1.47l1.01-.57.98.19c.04-.1.07-.42.1-.51h-.06l-.57.22-.54-.38s-.22-.2-.03-.42l.5-.8-1.33-1.65 2.03.83.13-.16.28-.32.32.29c.1.1.12.19.15.28.57.23 1.56.86 1.65 1.92l-.32.12c.07.1.13.13.16.13l1.46.13.12-.03c.14-.05.3-.1.5-.14zm-9.94 4.08h-.68a9.07 9.07 0 0 1-.09-.72c-.22-2.84-2.12-3.22-2.12-3.22s1.01-.13 1.46-.54c.7-.64.63-1.38.63-1.38-1.55-.03-2.6-.54-3.35-1.46-.83-1-.99-2.05-.99-2.05s.83.77 2.47.77c.16 0 .29 0 .45-.03.76-.07 1.3-.54 1.3-.54-1.68-1.09-2.89-3-1.84-5.88.85-2.3 2.85-4.02 4.9-5.3.67-.4 1.05-.88 1.05-1.3 0-.96-1.36-.99-1.9-1.63-.63-.76-.25-1.98.32-2.7 0 0-.2-.04-.48-.04a3.4 3.4 0 0 0-2.44 1.02c-1.1 1.15-.66 2.43-.66 2.43l-.29.06-.53.06h-.13c-.26 0-.5-.04-.72-.12l.1-.63c.2.1.46.18.75.18H4.6c-.03-.58.07-1.5.89-2.36A3.9 3.9 0 0 1 8.89 6.5l.85.16-.5.7c-.42.54-.76 1.5-.35 2.01.12.16.4.29.7.42.56.25 1.32.63 1.32 1.56 0 .6-.47 1.24-1.3 1.75-2.5 1.57-4.01 3.23-4.68 5.04-1.01 2.81.32 4.38 1.61 5.24l.57.38-.5.48a3 3 0 0 1-1.62.7c-.19 0-.34.03-.5.03-.6 0-1.11-.1-1.49-.22.13.19.25.41.41.6a3.58 3.58 0 0 0 2.98 1.28h.5l.03.48c0 .1.04 1.02-.82 1.79-.12.12-.28.22-.44.28a4.43 4.43 0 0 1 1.3 3.03c.02.32.06.6.1.82zm-3.77.01h-.62a4.21 4.21 0 0 1-.52-1.11c-.29.25-.64.44-1.11.57-.2.03-.38.07-.57.07-.14 0-.27-.01-.4-.03l.08-.47.25.02c.16 0 .32 0 .48-.07 1.23-.28 1.55-1.43 1.55-1.43s-.04 1.35.86 2.45zm-2.26-6.8l.1-.66a16.75 16.75 0 0 0 2.63 4.18c.8.96.98 2.17.98 2.17s-.32-1.06-1.23-2.14a17.4 17.4 0 0 1-2.48-3.55zm.83-5.48l.06-.41c.3 1.05.86 1.72.86 1.72-.4-.43-.7-.87-.92-1.3zm.67-4.46l.16-1.05c.97-1 2.12-1.84 3.32-2.5l.76-.38c-.89.16-2.31.16-3.42-.8 0 0 1.7 1.28 5.16.13-.95.6-2.82 1.5-4.53 2.93a7.8 7.8 0 0 0-1.45 1.67zm.4-2.58l.1-.73c.15.17.2.33.16.5l-.03.19-.2.03-.04.01zm9.79 14.03c0 .06-.07.13-.16.13-.06 0-.13-.07-.13-.16.03-.07.1-.13.16-.1.06 0 .13.06.13.13zm1.26-12.8h2.09v.74c-.25-.32-.73-.26-.73-.26v1.06s0 .5.2.73h-1.01c.15-.22.18-.73.18-.73v-1.06s-.47-.06-.73.26v-.74zm.1-3.98c-.03 0-.22-.07-.54-.32-.57-.42-.57-.8-.54-.8l1.2.5v.68l-.12-.06zm2.91-1.15s-.03.41-.57.83c-.35.28-.54.32-.5.28l-.13.07v-.67l1.2-.51zm-4.21 2.68l1.96 1.05V9.31l-2.66-.93.7 4.12zm-1.74 9.38c-.29 0-.57.16-.7.25-.1.58.32 1.12.6 1.22.26.1.57.12.73.12 0-.03 0-.03.03-.06 0-.03.04-.1.04-.16.03-.22.06-.51.06-.67-.06-.06-.22-.2-.32-.38-.1-.23-.25-.32-.44-.32zm.35-.39l.66-2.26-.31-.7-.54.57-.07 2.36.26.03zm-.35 9.03l.54-.38.92.2s-.16-.23-.16-.49l-.89-.19-.82.51a.8.8 0 0 0-.26.96l.1.26s.5-.23.57-.36l-.06-.22c-.07-.13-.04-.22.06-.29z"/>
    </g>
  </g>
</svg>
