<svg xmlns="http://www.w3.org/2000/svg" viewBox="0 0 14 14"><path d="M11.3 4.4c-.9 0-1.5.4-2 .8L7.6 7l1.7 1.8c.5.5 1.1.8 2 .8 1.5 0 2.6-1.2 2.6-2.6 0-1.5-1.1-2.6-2.6-2.6m0 1.1c.8 0 1.4.7 1.4 1.5s-.6 1.5-1.4 1.5c-.5 0-.8-.1-1.2-.5l-1-1 1-1c.4-.4.8-.5 1.2-.5M2.7 4.4C1.2 4.4.1 5.5.1 7s1.1 2.6 2.6 2.6c.9 0 1.5-.4 2-.8L6.4 7 4.6 5.2c-.5-.5-1-.8-1.9-.8m0 1.1c.5 0 .8.1 1.2.5l1 1-1 1c-.4.4-.8.5-1.2.5-.8 0-1.5-.7-1.5-1.5s.7-1.5 1.5-1.5m6.9 5.8c0-.9-.4-1.5-.8-2L7 7.6 5.2 9.4c-.5.5-.8 1.1-.8 2C4.4 12.9 5.6 14 7 14c1.5-.1 2.6-1.2 2.6-2.7m-1.1 0c0 .8-.7 1.4-1.5 1.4s-1.5-.6-1.5-1.4c0-.5.1-.8.5-1.2l1-1 1 1c.4.4.5.8.5 1.2M7 .1C5.5.1 4.4 1.2 4.4 2.7c0 .9.4 1.5.8 2L7 6.4l1.8-1.7c.5-.5.8-1.1.8-2C9.6 1.2 8.5.1 7 .1m0 1.1c.8 0 1.5.6 1.5 1.4 0 .5-.1.8-.5 1.2l-1 1-1-1c-.4-.3-.5-.7-.5-1.1 0-.9.6-1.5 1.5-1.5" fill="#fff"/></svg>