<svg width="46" height="56" viewBox="0 0 46 56" fill="none" xmlns="http://www.w3.org/2000/svg"><path d="M22.9 36.787c8.188 0 14.826-6.638 14.826-14.826S31.088 7.135 22.9 7.135 8.074 13.773 8.074 21.961 14.712 36.787 22.9 36.787z" fill="#A9D6FA"/><path d="M42.244 15.675c-.583-1.796.736-5.041-.818-7.176-1.562-2.146-5.08-1.903-6.574-2.99-1.484-1.08-2.32-4.503-4.875-5.332-2.508-.815-5.122 1.45-7.077 1.45-1.948 0-4.576-2.263-7.078-1.45-2.55.828-3.398 4.257-4.875 5.332-1.504 1.094-5.008.839-6.574 2.99-1.552 2.133-.236 5.386-.818 7.177C3 17.389 0 19.24 0 21.96c0 1.668 1.125 3.003 2.117 4.18 1.615 1.916 1.71 2.143 1.532 4.773-.102 1.507-.218 3.214.724 4.51 1.414 1.942 4.395 1.916 6.096 2.713L5.417 50.263c-.352.845.432 1.724 1.312 1.471l5.917-1.7 2.959 5.399c.43.785 1.575.748 1.952-.067L22.9 43.81l5.343 11.557c.375.812 1.52.855 1.952.067l2.958-5.4 5.918 1.701a1.093 1.093 0 001.312-1.471L35.33 38.137c1.704-.799 4.681-.771 6.095-2.714 1.553-2.133.237-5.386.818-7.177.556-1.713 3.556-3.565 3.556-6.285 0-2.714-3.003-4.584-3.556-6.285zM16.481 52.48l-2.337-4.265a1.094 1.094 0 00-1.261-.525L8.31 49.004l3.823-9.176c1.152 1.775 2.275 4.095 4.84 4.095 1.36 0 2.717-.666 3.996-1.153l-4.489 9.71zm16.436-4.79a1.094 1.094 0 00-1.262.525l-2.337 4.265-4.489-9.71c1.673.637 3.41 1.54 5.148.975 1.796-.583 2.72-2.423 3.689-3.917l3.822 9.175-4.571-1.313zm7.246-20.12c-.732 2.257.408 5.31-.505 6.566-.983 1.35-4.388 1.05-6.394 2.75-1.674 1.452-2.52 4.31-3.962 4.779-1.442.467-4.002-1.557-6.402-1.557-2.413 0-4.957 2.026-6.402 1.557-1.521-.494-2.375-3.646-4.264-5.02-.926-.675-2.1-.968-3.237-1.252-3.164-.79-3.384-1.113-3.165-4.331.08-1.175.162-2.39-.196-3.491-.717-2.208-3.448-3.963-3.448-5.61 0-1.642 2.734-3.41 3.448-5.61.733-2.256-.407-5.31.506-6.565.934-1.283 4.173-1.112 6.093-2.509 1.895-1.38 2.736-4.524 4.263-5.02 1.44-.467 4.002 1.557 6.402 1.557 2.4 0 4.962-2.025 6.402-1.557 1.534.498 2.357 3.633 4.263 5.02 1.908 1.389 5.163 1.231 6.093 2.509.918 1.262-.231 4.295.506 6.565.719 2.215 3.448 3.96 3.448 5.61 0 1.642-2.733 3.406-3.449 5.61z" fill="#2F97EB"/><path d="M32.295 17.706l-5.814-.845-2.6-5.268c-.4-.812-1.561-.812-1.962 0l-2.6 5.268-5.814.845c-.895.13-1.255 1.234-.606 1.866l4.207 4.1-.993 5.791a1.095 1.095 0 001.587 1.154l5.2-2.735 5.2 2.735c.798.419 1.74-.257 1.587-1.154l-.993-5.79 4.207-4.101a1.095 1.095 0 00-.606-1.866zm-5.54 4.802a1.094 1.094 0 00-.314.968l.715 4.173-3.747-1.97a1.094 1.094 0 00-1.018 0l-3.748 1.97.716-4.173a1.094 1.094 0 00-.315-.968l-3.032-2.956 4.19-.608c.357-.052.664-.276.824-.599L22.9 14.55l1.873 3.796c.16.323.468.547.824.599l4.19.608-3.032 2.956z" fill="#2F97EB"/></svg>