<svg xmlns="http://www.w3.org/2000/svg" width="60" height="60" viewBox="0 0 60 60"><path d="M2.914 30.227l10.059-16.512 16.629-9.887 8.57 3.774 8.742 6.113 9.828 16.512-9.828 16.457-17.312 10.171L13.43 46.684zm0 0" fill="#2d2d2d" stroke="#000" stroke-width=".714"/><path d="M30.14 1.102L30 1.043l-.14.059c-7.465 3.203-12.801 6.378-17.196 10.77-4.402 4.394-7.84 9.983-11.559 17.976l-.066.144.063.149c3.257 7.605 6.46 13.015 10.859 17.418 4.39 4.398 9.953 7.773 17.89 11.34l.157.066.148-.074c8.09-3.957 13.828-7.48 18.27-11.852 4.445-4.375 7.574-9.594 10.476-16.91l.055-.137-.059-.137c-3.058-6.949-5.746-12.218-9.925-16.714C44.785 8.645 39.125 4.949 30.14 1.1zM14.388 45.613L4.734 30l9.653-15.613L30 4.734l15.613 9.653L55.266 30l-9.653 15.613L30 55.266zm0 0" fill="#fff" stroke="#2d2d2d" stroke-width=".714"/><path d="M28.86 4.973c.222 10.082-.606 17.011-9.145 21.027l6.687 2.512L30 30l10.285-4c-3.898-1.152-10.008-6.598-9.144-21.027L30 4.285zm0 50.054c.222-10.082 1.1-18.285-9.145-21.027l4.86-1.945L30 30l5.66 2.23L40.285 34c-5.34 1.445-10.008 6.598-9.144 21.027L30 55.715zm0 0" fill="#fff"/><path d="M8.855 31.14h18.403L30 30l-2.742-1.14H8.855zm24-2.28L30 30l2.855 1.14h18.29v-2.28zm0 0" fill="#fff"/></svg>