<svg width="300" height="56" viewBox="0 0 300 56" fill="none" xmlns="http://www.w3.org/2000/svg"><g clip-path="url(#clip0_303_76)"><path d="M22.982 4.083a4.42 4.42 0 014.421 0L44.8 14.127a4.42 4.42 0 012.21 3.829v20.088a4.42 4.42 0 01-2.21 3.829L27.403 51.916a4.42 4.42 0 01-4.42 0L5.585 41.873a4.42 4.42 0 01-2.21-3.83V17.957a4.42 4.42 0 012.21-3.829L22.982 4.083z" fill="#2F97EB"/><g clip-path="url(#clip1_303_76)" fill="#fff"><path d="M24.506 34.464l.03 4.63-3.838-2.269-.03-4.63 3.838 2.27zm6.334 1.545l-.031-4.63 3.808-2.32.028 4.277a.625.625 0 01-.3.538l-3.505 2.135zm-5.054 3.077l-.03-4.63 3.808-2.319.03 4.63-3.808 2.319zm-.07-10.717l3.808-2.32.03 4.63L25.746 33l-.03-4.63zm5.084 1.552l-.031-4.63 3.808-2.319.03 4.63-3.808 2.32zm-.663-5.708l-3.874-2.29 3.843-2.34 3.874 2.29-3.843 2.34zm-5.084-1.553l3.874 2.29-3.843 2.34L21.21 25l3.843-2.34zm-5.093-3.01l3.874 2.29-3.843 2.34-3.874-2.29 3.843-2.34zm5.376-2.887l3.55 2.1-3.842 2.34-3.874-2.29 3.523-2.145a.625.625 0 01.643-.005zm-5.963 8.603l.03 4.63-3.837-2.268-.031-4.63 3.838 2.268zm1.285 5.372l-.03-4.63 3.838 2.269.03 4.63-3.838-2.27zm-5.083-1.553l3.838 2.269.03 4.63-3.533-2.089a.625.625 0 01-.307-.534l-.028-4.276z"/></g><path d="M76.28 13.135c.993.909 1.49 2.078 1.49 3.507 0 1.429-.497 2.604-1.49 3.524-.993.908-2.374 1.471-4.142 1.69v1.507h-3.125v-1.508c-1.768-.218-3.155-.78-4.16-1.689-.993-.92-1.49-2.095-1.49-3.524 0-1.43.497-2.598 1.49-3.507 1.005-.92 2.392-1.49 4.16-1.707V9.92h3.125v1.508c1.768.218 3.149.787 4.142 1.707zm-9.665 3.507c0 1.26.8 2.004 2.398 2.234v-4.523c-.823.12-1.429.369-1.816.744-.388.376-.582.89-.582 1.545zm5.523 2.234c.823-.121 1.43-.363 1.817-.727.387-.375.581-.878.581-1.507 0-.654-.194-1.17-.581-1.545-.388-.375-.993-.623-1.817-.744v4.523zm18.44 2.489c-1.284 1.272-2.859 1.908-4.724 1.908-1.865 0-3.446-.636-4.742-1.908-1.283-1.284-1.925-2.858-1.925-4.723 0-1.865.642-3.434 1.925-4.706 1.296-1.283 2.877-1.925 4.742-1.925 1.865 0 3.44.642 4.724 1.925 1.295 1.272 1.943 2.84 1.943 4.706 0 1.865-.648 3.44-1.944 4.723zm-7.176-2.234c.654.641 1.471.962 2.452.962.981 0 1.799-.32 2.453-.962.654-.655.98-1.484.98-2.49 0-1.005-.326-1.828-.98-2.47-.654-.654-1.472-.981-2.453-.981-.98 0-1.798.327-2.452.98-.654.643-.981 1.466-.981 2.472 0 1.005.327 1.834.98 2.489zm16.114-8.848c1.284 0 2.362.418 3.234 1.254.872.835 1.308 1.901 1.308 3.197s-.436 2.362-1.308 3.197c-.872.836-1.95 1.254-3.234 1.254h-1.69V23h-3.251V10.283h4.941zm0 5.814c.364 0 .666-.128.909-.382.254-.254.381-.581.381-.98 0-.4-.127-.722-.381-.964a1.205 1.205 0 00-.909-.381h-1.69v2.707h1.69zm14.986-5.814v3.143h-3.142V23h-3.252v-9.574h-3.143v-3.143h9.537zM123.239 23v-6.395L118.752 23h-2.525V10.283h3.252v6.395l4.487-6.395h2.507V23h-3.234zm11.932.273c-1.913 0-3.5-.63-4.759-1.89-1.248-1.271-1.872-2.852-1.872-4.741 0-1.89.624-3.464 1.872-4.724 1.259-1.271 2.846-1.907 4.759-1.907 1.151 0 2.217.272 3.198.817a6.103 6.103 0 012.307 2.198l-2.816 1.617a2.543 2.543 0 00-1.09-1.054 3.196 3.196 0 00-1.599-.4c-1.017 0-1.841.322-2.47.964-.618.63-.927 1.46-.927 2.489s.309 1.865.927 2.507c.629.63 1.453.944 2.47.944a3.32 3.32 0 001.599-.381c.485-.267.848-.63 1.09-1.09l2.816 1.635a6.058 6.058 0 01-2.307 2.216c-.969.533-2.035.8-3.198.8zm-66.23 10.01c1.283 0 2.361.418 3.233 1.254.872.835 1.308 1.901 1.308 3.197s-.436 2.362-1.308 3.197c-.872.836-1.95 1.254-3.233 1.254h-1.69V46H64V33.283h4.942zm0 5.814c.363 0 .666-.128.908-.382.254-.254.381-.581.381-.98 0-.4-.127-.722-.381-.964a1.203 1.203 0 00-.908-.381h-1.69v2.707h1.69zm9.606 3.851h4.923V46h-8.175V33.283h8.085v3.034h-4.833v1.762h4.378v2.998h-4.378v1.871zm19.006-9.665h3.251V46H85.562V33.283h3.252v9.574h2.744v-9.574h3.251v9.574h2.744v-9.574zm9.051 9.665h4.923V46h-8.175V33.283h8.084v3.034h-4.832v1.762h4.378v2.998h-4.378v1.871zm13.846-9.665h3.233V46h-3.233v-4.887h-3.579V46h-3.252V33.283h3.252v4.705h3.579v-4.705zM133.258 46v-6.395L128.771 46h-2.525V33.283h3.251v6.395l4.488-6.395h2.507V46h-3.234zm15.22-12.717V46h-3.233v-4.106h-.691L141.993 46h-3.615l2.906-4.56a4.332 4.332 0 01-1.798-1.526 3.992 3.992 0 01-.654-2.234c0-1.272.436-2.32 1.308-3.143.872-.836 1.956-1.254 3.252-1.254h5.086zm-5.05 5.85h1.817V36.28h-1.817c-.388 0-.715.139-.981.418-.254.266-.382.605-.382 1.017 0 .424.128.769.382 1.035.266.267.593.394.981.382z" fill="#0F1F2C"/></g><defs><clipPath id="clip0_303_76"><path fill="#fff" d="M0 0h300v56H0z"/></clipPath><clipPath id="clip1_303_76"><path fill="#fff" transform="rotate(44.623 -3.345 36.949)" d="M0 0h21.34v21.34H0z"/></clipPath></defs></svg>