<svg width="24" height="24" viewBox="0 0 24 24" fill="none" xmlns="http://www.w3.org/2000/svg"><path d="M13.463 14.444a2.703 2.703 0 01-3.008 0L3.079 9.527a2.682 2.682 0 01-.12-.085L3 17.084c0 .923.75 1.657 1.657 1.657h14.686c.924 0 1.657-.75 1.657-1.657l-.041-7.642c-.04.03-.08.058-.12.085l-7.376 4.918z" fill="#2F97EB"/><path d="M3.705 8.233l7.376 4.918a1.655 1.655 0 001.838 0l7.376-4.918A1.58 1.58 0 0021 6.916c0-.914-.743-1.657-1.657-1.657H4.656A1.66 1.66 0 003 6.917c0 .53.264 1.022.705 1.316z" fill="#2F97EB"/></svg>