<svg width="24" height="24" viewBox="0 0 24 24" fill="none" xmlns="http://www.w3.org/2000/svg"><g clip-path="url(#clip0_303_212)"><path d="M18.686 6.228a7.687 7.687 0 00-6.082-4.171 8.736 8.736 0 00-1.745 0 7.69 7.69 0 00-6.082 4.17 8.307 8.307 0 001.138 9.144l5.222 6.348a.769.769 0 001.188 0l5.222-6.348a8.307 8.307 0 001.139-9.143zm-6.955 6.547a3.075 3.075 0 110-6.15 3.075 3.075 0 010 6.15z" fill="#2F97EB"/></g><defs><clipPath id="clip0_303_212"><path fill="#fff" transform="translate(2 2)" d="M0 0h20v20H0z"/></clipPath></defs></svg>